<svg 
 xmlns="http://www.w3.org/2000/svg"
 xmlns:xlink="http://www.w3.org/1999/xlink"
 width="28px" height="28px">
<path fill-rule="evenodd"  fill="rgb(64, 78, 136)"
 d="M17.536,14.000 L26.874,23.339 C27.851,24.315 27.851,25.898 26.874,26.874 C25.898,27.851 24.315,27.851 23.339,26.874 L14.000,17.536 L4.661,26.874 C3.685,27.851 2.102,27.851 1.126,26.874 C0.149,25.898 0.149,24.315 1.126,23.339 L10.464,14.000 L1.126,4.661 C0.149,3.685 0.149,2.102 1.126,1.126 C2.102,0.149 3.685,0.149 4.661,1.126 L14.000,10.464 L23.339,1.126 C24.315,0.149 25.898,0.149 26.874,1.126 C27.851,2.102 27.851,3.685 26.874,4.661 L17.536,14.000 Z"/>
</svg>