<svg 
 xmlns="http://www.w3.org/2000/svg"
 xmlns:xlink="http://www.w3.org/1999/xlink"
 width="35px" height="26px">
<path fill-rule="evenodd"  fill="rgb(64, 78, 136)"
 d="M32.500,5.000 L2.500,5.000 C1.119,5.000 -0.000,3.881 -0.000,2.500 C-0.000,1.119 1.119,0.000 2.500,0.000 L32.500,0.000 C33.881,0.000 35.000,1.119 35.000,2.500 C35.000,3.881 33.881,5.000 32.500,5.000 ZM2.500,10.000 L22.500,10.000 C23.881,10.000 25.000,11.119 25.000,12.500 C25.000,13.881 23.881,15.000 22.500,15.000 L2.500,15.000 C1.119,15.000 -0.000,13.881 -0.000,12.500 C-0.000,11.119 1.119,10.000 2.500,10.000 ZM2.500,21.000 L32.500,21.000 C33.881,21.000 35.000,22.119 35.000,23.500 C35.000,24.881 33.881,26.000 32.500,26.000 L2.500,26.000 C1.119,26.000 -0.000,24.881 -0.000,23.500 C-0.000,22.119 1.119,21.000 2.500,21.000 Z"/>
</svg>