<?xml version="1.0" encoding="UTF-8"?>
<svg width="720px" height="855px" viewBox="0 0 720 855" version="1.1" xmlns="http://www.w3.org/2000/svg" xmlns:xlink="http://www.w3.org/1999/xlink">
    <!-- Generator: Sketch 49.2 (51160) - http://www.bohemiancoding.com/sketch -->
    <title>roadmap</title>
    <desc>Created with Sketch.</desc>
    <defs></defs>
    <g id="Page-1" stroke="none" stroke-width="1" fill="none" fill-rule="evenodd">
        <g id="roadmap">
            <path d="M0,850 C0,852.762 2.239,855.002 5,855.002 L715,855.002 C717.761,855.002 720,852.762 720,850 L720,5 C720,2.24 717.761,0.002 715,0.002 L5,0.002 C2.239,0.002 0,2.24 0,5 L0,850 Z" id="Shape" fill="#FFFFFF"></path>
            <path d="M715,783 L715,783.999 L660,783.999 L660,848.001 L659,848.001 L659,783.999 L610,783.999 L610,848.001 L609,848.001 L609,783.999 L560,783.999 L560,848.001 L559,848.001 L559,783.999 L510,783.999 L510,848.001 L509,848.001 L509,783.999 L460,783.999 L460,848.001 L459,848.001 L459,783.999 L410,783.999 L410,848.001 L409,848.001 L409,783.999 L360,783.999 L360,848.001 L359,848.001 L359,783.999 L310,783.999 L310,848.001 L309,848.001 L309,783.999 L260,783.999 L260,848.001 L259,848.001 L259,783.999 L210,783.999 L210,848.001 L209,848.001 L209,783.999 L160,783.999 L160,848.001 L159,848.001 L159,783.999 L110,783.999 L110,848.001 L109,848.001 L109,783.999 L60,783.999 L60,848.001 L59,848.001 L59,783.999 L5,783.999 L5,783 L59,783 L59,724 L5,724 L5,723 L59,723 L59,664 L5,664 L5,663 L59,663 L59,604 L5,604 L5,603.001 L59,603.001 L59,544.001 L5,544.001 L5,542.999 L59,542.999 L59,483.999 L5,483.999 L5,483 L59,483 L59,424 L5,424 L5,423 L59,423 L59,364 L5,364 L5,363 L59,363 L59,304 L5,304 L5,303.001 L59,303.001 L59,244 L5,244 L5,242.999 L59,242.999 L59,184.001 L5,184.001 L5,183 L59,183 L59,123.999 L5,123.999 L5,123 L59,123 L59,64 L5,64 L5,63 L59,63 L60,63 L109,63 L110,63 L159,63 L160,63 L209,63 L210,63 L259,63 L260,63 L309,63 L310,63 L359,63 L360,63 L409,63 L410,63 L459,63 L460,63 L509,63 L510,63 L559,63 L560,63 L609,63 L610,63 L659,63 L660,63 L715,63 L715,64 L660,64 L660,123 L715,123 L715,123.999 L660,123.999 L660,183 L715,183 L715,184.001 L660,184.001 L660,242.999 L715,242.999 L715,244 L660,244 L660,303.001 L715,303.001 L715,304 L660,304 L660,363 L715,363 L715,364 L660,364 L660,423 L715,423 L715,424 L660,424 L660,483 L715,483 L715,483.999 L660,483.999 L660,542.999 L715,542.999 L715,544.001 L660,544.001 L660,603.001 L715,603.001 L715,604 L660,604 L660,663 L715,663 L715,664 L660,664 L660,723 L715,723 L715,724 L660,724 L660,783 L715,783 Z M109,64 L60,64 L60,123 L109,123 L109,64 Z M109,123.999 L60,123.999 L60,183 L109,183 L109,123.999 Z M109,184.001 L60,184.001 L60,242.999 L109,242.999 L109,184.001 Z M109,244 L60,244 L60,303.001 L109,303.001 L109,244 Z M109,304 L60,304 L60,363 L109,363 L109,304 Z M109,364 L60,364 L60,423 L109,423 L109,364 Z M109,424 L60,424 L60,483 L109,483 L109,424 Z M109,483.999 L60,483.999 L60,542.999 L109,542.999 L109,483.999 Z M109,544.001 L60,544.001 L60,603.001 L109,603.001 L109,544.001 Z M109,604 L60,604 L60,663 L109,663 L109,604 Z M109,664 L60,664 L60,723 L109,723 L109,664 Z M109,724 L60,724 L60,783 L109,783 L109,724 Z M159,64 L110,64 L110,123 L159,123 L159,64 Z M159,123.999 L110,123.999 L110,183 L159,183 L159,123.999 Z M159,184.001 L110,184.001 L110,242.999 L159,242.999 L159,184.001 Z M159,244 L110,244 L110,303.001 L159,303.001 L159,244 Z M159,304 L110,304 L110,363 L159,363 L159,304 Z M159,364 L110,364 L110,423 L159,423 L159,364 Z M159,424 L110,424 L110,483 L159,483 L159,424 Z M159,483.999 L110,483.999 L110,542.999 L159,542.999 L159,483.999 Z M159,544.001 L110,544.001 L110,603.001 L159,603.001 L159,544.001 Z M159,604 L110,604 L110,663 L159,663 L159,604 Z M159,664 L110,664 L110,723 L159,723 L159,664 Z M159,724 L110,724 L110,783 L159,783 L159,724 Z M209,64 L160,64 L160,123 L209,123 L209,64 Z M209,123.999 L160,123.999 L160,183 L209,183 L209,123.999 Z M209,184.001 L160,184.001 L160,242.999 L209,242.999 L209,184.001 Z M209,244 L160,244 L160,303.001 L209,303.001 L209,244 Z M209,304 L160,304 L160,363 L209,363 L209,304 Z M209,364 L160,364 L160,423 L209,423 L209,364 Z M209,424 L160,424 L160,483 L209,483 L209,424 Z M209,483.999 L160,483.999 L160,542.999 L209,542.999 L209,483.999 Z M209,544.001 L160,544.001 L160,603.001 L209,603.001 L209,544.001 Z M209,604 L160,604 L160,663 L209,663 L209,604 Z M209,664 L160,664 L160,723 L209,723 L209,664 Z M209,724 L160,724 L160,783 L209,783 L209,724 Z M259,64 L210,64 L210,123 L259,123 L259,64 Z M259,123.999 L210,123.999 L210,183 L259,183 L259,123.999 Z M259,184.001 L210,184.001 L210,242.999 L259,242.999 L259,184.001 Z M259,244 L210,244 L210,303.001 L259,303.001 L259,244 Z M259,304 L210,304 L210,363 L259,363 L259,304 Z M259,364 L210,364 L210,423 L259,423 L259,364 Z M259,424 L210,424 L210,483 L259,483 L259,424 Z M259,483.999 L210,483.999 L210,542.999 L259,542.999 L259,483.999 Z M259,544.001 L210,544.001 L210,603.001 L259,603.001 L259,544.001 Z M259,604 L210,604 L210,663 L259,663 L259,604 Z M259,664 L210,664 L210,723 L259,723 L259,664 Z M259,724 L210,724 L210,783 L259,783 L259,724 Z M309,64 L260,64 L260,123 L309,123 L309,64 Z M309,123.999 L260,123.999 L260,183 L309,183 L309,123.999 Z M309,184.001 L260,184.001 L260,242.999 L309,242.999 L309,184.001 Z M309,244 L260,244 L260,303.001 L309,303.001 L309,244 Z M309,304 L260,304 L260,363 L309,363 L309,304 Z M309,364 L260,364 L260,423 L309,423 L309,364 Z M309,424 L260,424 L260,483 L309,483 L309,424 Z M309,483.999 L260,483.999 L260,542.999 L309,542.999 L309,483.999 Z M309,544.001 L260,544.001 L260,603.001 L309,603.001 L309,544.001 Z M309,604 L260,604 L260,663 L309,663 L309,604 Z M309,664 L260,664 L260,723 L309,723 L309,664 Z M309,724 L260,724 L260,783 L309,783 L309,724 Z M359,64 L310,64 L310,123 L359,123 L359,64 Z M359,123.999 L310,123.999 L310,183 L359,183 L359,123.999 Z M359,184.001 L310,184.001 L310,242.999 L359,242.999 L359,184.001 Z M359,244 L310,244 L310,303.001 L359,303.001 L359,244 Z M359,304 L310,304 L310,363 L359,363 L359,304 Z M359,364 L310,364 L310,423 L359,423 L359,364 Z M359,424 L310,424 L310,483 L359,483 L359,424 Z M359,483.999 L310,483.999 L310,542.999 L359,542.999 L359,483.999 Z M359,544.001 L310,544.001 L310,603.001 L359,603.001 L359,544.001 Z M359,604 L310,604 L310,663 L359,663 L359,604 Z M359,664 L310,664 L310,723 L359,723 L359,664 Z M359,724 L310,724 L310,783 L359,783 L359,724 Z M409,64 L360,64 L360,123 L409,123 L409,64 Z M409,123.999 L360,123.999 L360,183 L409,183 L409,123.999 Z M409,184.001 L360,184.001 L360,242.999 L409,242.999 L409,184.001 Z M409,244 L360,244 L360,303.001 L409,303.001 L409,244 Z M409,304 L360,304 L360,363 L409,363 L409,304 Z M409,364 L360,364 L360,423 L409,423 L409,364 Z M409,424 L360,424 L360,483 L409,483 L409,424 Z M409,483.999 L360,483.999 L360,542.999 L409,542.999 L409,483.999 Z M409,544.001 L360,544.001 L360,603.001 L409,603.001 L409,544.001 Z M409,604 L360,604 L360,663 L409,663 L409,604 Z M409,664 L360,664 L360,723 L409,723 L409,664 Z M409,724 L360,724 L360,783 L409,783 L409,724 Z M410,783 L459,783 L459,724 L410,724 L410,783 Z M410,723 L459,723 L459,664 L410,664 L410,723 Z M410,663 L459,663 L459,604 L410,604 L410,663 Z M410,603.001 L459,603.001 L459,544.001 L410,544.001 L410,603.001 Z M410,542.999 L459,542.999 L459,483.999 L410,483.999 L410,542.999 Z M410,483 L459,483 L459,424 L410,424 L410,483 Z M410,423 L459,423 L459,364 L410,364 L410,423 Z M410,363 L459,363 L459,304 L410,304 L410,363 Z M410,303.001 L459,303.001 L459,244 L410,244 L410,303.001 Z M410,242.999 L459,242.999 L459,184.001 L410,184.001 L410,242.999 Z M410,183 L459,183 L459,123.999 L410,123.999 L410,183 Z M410,64 L410,123 L459,123 L459,64 L410,64 Z M509,64 L460,64 L460,123 L509,123 L509,64 Z M509,123.999 L460,123.999 L460,183 L509,183 L509,123.999 Z M509,184.001 L460,184.001 L460,242.999 L509,242.999 L509,184.001 Z M509,244 L460,244 L460,303.001 L509,303.001 L509,244 Z M509,304 L460,304 L460,363 L509,363 L509,304 Z M509,364 L460,364 L460,423 L509,423 L509,364 Z M509,424 L460,424 L460,483 L509,483 L509,424 Z M509,483.999 L460,483.999 L460,542.999 L509,542.999 L509,483.999 Z M509,544.001 L460,544.001 L460,603.001 L509,603.001 L509,544.001 Z M509,604 L460,604 L460,663 L509,663 L509,604 Z M509,664 L460,664 L460,723 L509,723 L509,664 Z M509,724 L460,724 L460,783 L509,783 L509,724 Z M559,64 L510,64 L510,123 L559,123 L559,64 Z M559,123.999 L510,123.999 L510,183 L559,183 L559,123.999 Z M559,184.001 L510,184.001 L510,242.999 L559,242.999 L559,184.001 Z M559,244 L510,244 L510,303.001 L559,303.001 L559,244 Z M559,304 L510,304 L510,363 L559,363 L559,304 Z M559,364 L510,364 L510,423 L559,423 L559,364 Z M559,424 L510,424 L510,483 L559,483 L559,424 Z M559,483.999 L510,483.999 L510,542.999 L559,542.999 L559,483.999 Z M559,544.001 L510,544.001 L510,603.001 L559,603.001 L559,544.001 Z M559,604 L510,604 L510,663 L559,663 L559,604 Z M559,664 L510,664 L510,723 L559,723 L559,664 Z M559,724 L510,724 L510,783 L559,783 L559,724 Z M609,64 L560,64 L560,123 L609,123 L609,64 Z M609,123.999 L560,123.999 L560,183 L609,183 L609,123.999 Z M609,184.001 L560,184.001 L560,242.999 L609,242.999 L609,184.001 Z M609,244 L560,244 L560,303.001 L609,303.001 L609,244 Z M609,304 L560,304 L560,363 L609,363 L609,304 Z M609,364 L560,364 L560,423 L609,423 L609,364 Z M609,424 L560,424 L560,483 L609,483 L609,424 Z M609,483.999 L560,483.999 L560,542.999 L609,542.999 L609,483.999 Z M609,544.001 L560,544.001 L560,603.001 L609,603.001 L609,544.001 Z M609,604 L560,604 L560,663 L609,663 L609,604 Z M609,664 L560,664 L560,723 L609,723 L609,664 Z M609,724 L560,724 L560,783 L609,783 L609,724 Z M659,64 L610,64 L610,123 L659,123 L659,64 Z M659,123.999 L610,123.999 L610,183 L659,183 L659,123.999 Z M659,184.001 L610,184.001 L610,242.999 L659,242.999 L659,184.001 Z M659,244 L610,244 L610,303.001 L659,303.001 L659,244 Z M659,304 L610,304 L610,363 L659,363 L659,304 Z M659,364 L610,364 L610,423 L659,423 L659,364 Z M659,424 L610,424 L610,483 L659,483 L659,424 Z M659,483.999 L610,483.999 L610,542.999 L659,542.999 L659,483.999 Z M659,544.001 L610,544.001 L610,603.001 L659,603.001 L659,544.001 Z M659,604 L610,604 L610,663 L659,663 L659,604 Z M659,664 L610,664 L610,723 L659,723 L659,664 Z M659,724 L610,724 L610,783 L659,783 L659,724 Z" id="Shape" fill="#191C21" opacity="0.102"></path>
            <path d="M677.855,98.989 L677.855,97.699 L680.195,97.699 L680.195,90.859 C680.195,90.529 680.21,90.214 680.21,90.214 L680.18,90.214 C680.18,90.214 680.06,90.439 679.67,90.829 L678.68,91.789 L677.78,90.859 L680.315,88.399 L681.635,88.399 L681.635,97.699 L683.96,97.699 L683.96,98.989 L677.855,98.989 Z M684.74,96.154 L684.74,95.224 L689.645,88.399 L691.325,88.399 L691.325,94.909 L692.765,94.909 L692.765,96.154 L691.325,96.154 L691.325,98.989 L689.87,98.989 L689.87,96.154 L684.74,96.154 Z M686.375,94.909 L689.87,94.909 L689.87,91.039 C689.87,90.544 689.93,89.974 689.93,89.974 L689.9,89.974 C689.9,89.974 689.66,90.484 689.375,90.859 L686.375,94.879 L686.375,94.909 Z" id="14" fill="#000000"></path>
            <path d="M627.855,98.917 L627.855,97.627 L630.195,97.627 L630.195,90.787 C630.195,90.457 630.21,90.142 630.21,90.142 L630.18,90.142 C630.18,90.142 630.06,90.367 629.67,90.757 L628.68,91.717 L627.78,90.787 L630.315,88.327 L631.635,88.327 L631.635,97.627 L633.96,97.627 L633.96,98.917 L627.855,98.917 Z M635.07,97.657 L635.88,96.532 C636.45,97.147 637.425,97.687 638.445,97.687 C639.615,97.687 640.605,96.892 640.605,95.752 C640.605,94.447 639.45,93.802 638.13,93.802 L637.41,93.802 L637.065,93.007 L639.375,90.292 C639.705,89.872 640.035,89.602 640.035,89.602 L640.035,89.572 C640.035,89.572 639.72,89.617 639.135,89.617 L635.55,89.617 L635.55,88.327 L641.88,88.327 L641.88,89.272 L639,92.602 C640.395,92.737 642.105,93.637 642.105,95.707 C642.105,97.507 640.68,99.097 638.505,99.097 C637.26,99.097 635.97,98.587 635.07,97.657 Z" id="13" fill="#000000"></path>
            <path d="M577.855,98.989 L577.855,97.699 L580.195,97.699 L580.195,90.859 C580.195,90.529 580.21,90.214 580.21,90.214 L580.18,90.214 C580.18,90.214 580.06,90.439 579.67,90.829 L578.68,91.789 L577.78,90.859 L580.315,88.399 L581.635,88.399 L581.635,97.699 L583.96,97.699 L583.96,98.989 L577.855,98.989 Z M585.31,98.989 C585.265,98.704 585.235,98.434 585.235,98.179 C585.235,94.414 590.44,93.859 590.44,91.369 C590.44,90.334 589.645,89.614 588.52,89.614 C587.635,89.614 586.825,90.199 586.375,90.964 L585.28,90.229 C585.88,89.119 587.08,88.219 588.64,88.219 C590.575,88.219 591.97,89.434 591.97,91.264 C591.97,94.744 586.915,95.284 586.855,97.699 L592.135,97.699 L592.135,98.989 L585.31,98.989 Z" id="12" fill="#000000"></path>
            <path d="M528.855,98.989 L528.855,97.699 L531.195,97.699 L531.195,90.859 C531.195,90.529 531.21,90.214 531.21,90.214 L531.18,90.214 C531.18,90.214 531.06,90.439 530.67,90.829 L529.68,91.789 L528.78,90.859 L531.315,88.399 L532.635,88.399 L532.635,97.699 L534.96,97.699 L534.96,98.989 L528.855,98.989 Z M536.265,98.989 L536.265,97.699 L538.605,97.699 L538.605,90.859 C538.605,90.529 538.62,90.214 538.62,90.214 L538.59,90.214 C538.59,90.214 538.47,90.439 538.08,90.829 L537.09,91.789 L536.19,90.859 L538.725,88.399 L540.045,88.399 L540.045,97.699 L542.37,97.699 L542.37,98.989 L536.265,98.989 Z" id="11" fill="#000000"></path>
            <path d="M477.855,98.947 L477.855,97.657 L480.195,97.657 L480.195,90.817 C480.195,90.487 480.21,90.172 480.21,90.172 L480.18,90.172 C480.18,90.172 480.06,90.397 479.67,90.787 L478.68,91.747 L477.78,90.817 L480.315,88.357 L481.635,88.357 L481.635,97.657 L483.96,97.657 L483.96,98.947 L477.855,98.947 Z M489.075,99.127 C486.255,99.127 485.325,96.697 485.325,93.637 C485.325,90.592 486.255,88.177 489.075,88.177 C491.91,88.177 492.825,90.592 492.825,93.637 C492.825,96.697 491.91,99.127 489.075,99.127 Z M489.075,97.762 C490.815,97.762 491.295,95.962 491.295,93.637 C491.295,91.342 490.815,89.542 489.075,89.542 C487.35,89.542 486.855,91.342 486.855,93.637 C486.855,95.962 487.35,97.762 489.075,97.762 Z" id="10" fill="#000000"></path>
            <path d="M432.26,98.692 L432.74,97.402 C433.1,97.582 433.685,97.762 434.255,97.762 C436.205,97.762 437.21,95.962 437.435,94.207 L437.405,94.207 C436.97,94.807 435.995,95.197 435.065,95.197 C433.055,95.197 431.72,93.682 431.72,91.717 C431.72,89.632 433.145,88.177 435.125,88.177 C437.39,88.177 439.085,90.142 439.085,93.172 C439.085,95.887 437.6,99.127 434.315,99.127 C433.64,99.127 432.905,99.007 432.26,98.692 Z M435.365,93.952 C436.565,93.952 437.54,93.217 437.54,92.467 C437.54,91.087 436.49,89.542 435.14,89.542 C433.925,89.542 433.205,90.472 433.205,91.717 C433.205,93.007 434.015,93.952 435.365,93.952 Z" id="9" fill="#000000"></path>
            <path d="M381.825,95.962 C381.825,94.357 383.115,93.367 383.52,93.097 C382.83,92.617 382.335,91.972 382.335,91.012 C382.335,89.557 383.4,88.207 385.635,88.207 C387.6,88.207 388.965,89.317 388.965,91.027 C388.965,92.362 388.005,93.487 387.69,93.802 C388.515,94.297 389.13,94.957 389.13,96.052 C389.13,97.702 387.72,99.157 385.5,99.157 C383.415,99.157 381.825,97.807 381.825,95.962 Z M386.55,93.232 C386.775,92.992 387.51,92.182 387.51,91.147 C387.51,90.142 386.73,89.542 385.605,89.542 C384.45,89.542 383.805,90.202 383.805,91.012 C383.805,92.212 385.23,92.647 386.55,93.232 Z M383.34,95.842 C383.34,97.027 384.39,97.822 385.485,97.822 C386.61,97.822 387.615,97.102 387.615,96.022 C387.615,94.822 386.01,94.402 384.63,93.742 C384.285,93.982 383.34,94.687 383.34,95.842 Z" id="8" fill="#000000"></path>
            <path d="M332.38,99.062 L336.505,90.737 C336.82,90.122 337.105,89.762 337.105,89.762 L337.105,89.732 C337.105,89.732 336.895,89.762 336.355,89.762 L331.615,89.762 L331.615,88.472 L338.695,88.472 L338.695,89.492 L333.925,99.062 L332.38,99.062 Z" id="7" fill="#000000"></path>
            <path d="M281.855,94.147 C281.855,91.417 283.34,88.177 286.61,88.177 C287.315,88.177 288.05,88.312 288.68,88.612 L288.2,89.887 C287.855,89.707 287.195,89.542 286.67,89.542 C284.75,89.542 283.73,91.342 283.505,93.097 L283.535,93.097 C283.985,92.497 284.945,92.107 285.875,92.107 C287.885,92.107 289.22,93.607 289.22,95.602 C289.22,97.642 287.795,99.127 285.815,99.127 C283.565,99.127 281.855,97.147 281.855,94.147 Z M285.86,97.762 C287,97.762 287.75,96.817 287.75,95.602 C287.75,94.282 286.94,93.352 285.575,93.352 C284.465,93.352 283.415,93.952 283.415,94.912 C283.415,96.052 284.345,97.762 285.86,97.762 Z" id="6" fill="#000000"></path>
            <path d="M231.735,97.627 L232.575,96.547 C233.025,97.102 233.805,97.687 234.9,97.687 C236.145,97.687 237.21,96.832 237.21,95.542 C237.21,94.267 236.175,93.367 234.81,93.367 C234.195,93.367 233.52,93.562 233.025,93.892 L232.155,93.577 L232.68,88.327 L238.035,88.327 L238.035,89.617 L233.97,89.617 L233.73,91.852 C233.7,92.182 233.64,92.392 233.64,92.392 L233.67,92.392 C233.925,92.257 234.54,92.077 235.05,92.077 C237.285,92.077 238.74,93.622 238.74,95.542 C238.74,97.567 237.12,99.097 234.99,99.097 C233.745,99.097 232.53,98.587 231.735,97.627 Z" id="5" fill="#000000"></path>
            <path d="M180.51,96.227 L180.51,95.297 L185.415,88.472 L187.095,88.472 L187.095,94.982 L188.535,94.982 L188.535,96.227 L187.095,96.227 L187.095,99.062 L185.64,99.062 L185.64,96.227 L180.51,96.227 Z M182.145,94.982 L185.64,94.982 L185.64,91.112 C185.64,90.617 185.7,90.047 185.7,90.047 L185.67,90.047 C185.67,90.047 185.43,90.557 185.145,90.932 L182.145,94.952 L182.145,94.982 Z" id="4" fill="#000000"></path>
            <path d="M131.66,97.657 L132.47,96.532 C133.04,97.147 134.015,97.687 135.035,97.687 C136.205,97.687 137.195,96.892 137.195,95.752 C137.195,94.447 136.04,93.802 134.72,93.802 L134,93.802 L133.655,93.007 L135.965,90.292 C136.295,89.872 136.625,89.602 136.625,89.602 L136.625,89.572 C136.625,89.572 136.31,89.617 135.725,89.617 L132.14,89.617 L132.14,88.327 L138.47,88.327 L138.47,89.272 L135.59,92.602 C136.985,92.737 138.695,93.637 138.695,95.707 C138.695,97.507 137.27,99.097 135.095,99.097 C133.85,99.097 132.56,98.587 131.66,97.657 Z" id="3" fill="#000000"></path>
            <path d="M81.9,98.989 C81.855,98.704 81.825,98.434 81.825,98.179 C81.825,94.414 87.03,93.859 87.03,91.369 C87.03,90.334 86.235,89.614 85.11,89.614 C84.225,89.614 83.415,90.199 82.965,90.964 L81.87,90.229 C82.47,89.119 83.67,88.219 85.23,88.219 C87.165,88.219 88.56,89.434 88.56,91.264 C88.56,94.744 83.505,95.284 83.445,97.699 L88.725,97.699 L88.725,98.989 L81.9,98.989 Z" id="2" fill="#000000"></path>
            <path d="M31.855,98.989 L31.855,97.699 L34.195,97.699 L34.195,90.859 C34.195,90.529 34.21,90.214 34.21,90.214 L34.18,90.214 C34.18,90.214 34.06,90.439 33.67,90.829 L32.68,91.789 L31.78,90.859 L34.315,88.399 L35.635,88.399 L35.635,97.699 L37.96,97.699 L37.96,98.989 L31.855,98.989 Z" id="1" fill="#000000"></path>
            <path d="M323.125,39.947 L323.125,32.357 L324.52,32.357 L324.52,36.887 C324.52,37.292 324.49,37.832 324.475,37.907 L324.505,37.907 C324.565,37.772 324.925,37.247 325.18,36.887 L328.45,32.357 L329.86,32.357 L329.86,39.947 L328.45,39.947 L328.45,35.417 C328.45,35.057 328.495,34.532 328.495,34.412 L328.465,34.412 C328.42,34.547 328.045,35.057 327.805,35.417 L324.52,39.947 L323.125,39.947 Z M332.095,39.947 L332.095,32.357 L333.55,32.357 L333.55,35.537 L334.93,35.537 C335.2,33.572 336.805,32.177 338.8,32.177 C341.005,32.177 342.76,33.842 342.76,36.137 C342.76,38.447 341.005,40.127 338.815,40.127 C336.805,40.127 335.2,38.717 334.93,36.737 L333.55,36.737 L333.55,39.947 L332.095,39.947 Z M336.34,36.137 C336.34,37.727 337.435,38.867 338.815,38.867 C340.18,38.867 341.275,37.727 341.275,36.137 C341.275,34.562 340.18,33.437 338.815,33.437 C337.435,33.437 336.34,34.562 336.34,36.137 Z M344.515,39.947 L344.515,32.357 L345.97,32.357 L345.97,35.447 L349.81,35.447 L349.81,32.357 L351.265,32.357 L351.265,39.947 L349.81,39.947 L349.81,36.692 L345.97,36.692 L345.97,39.947 L344.515,39.947 Z M353.515,39.947 L353.515,32.357 L354.97,32.357 L354.97,35.102 L356.5,35.102 C358.075,35.102 359.26,35.822 359.26,37.547 C359.26,38.972 358.39,39.947 356.47,39.947 L353.515,39.947 Z M354.97,38.897 L356.275,38.897 C357.325,38.897 357.775,38.327 357.775,37.532 C357.775,36.722 357.325,36.152 356.275,36.152 L354.97,36.152 L354.97,38.897 Z M364.345,39.947 C364.3,39.662 364.27,39.392 364.27,39.137 C364.27,35.372 369.475,34.817 369.475,32.327 C369.475,31.292 368.68,30.572 367.555,30.572 C366.67,30.572 365.86,31.157 365.41,31.922 L364.315,31.187 C364.915,30.077 366.115,29.177 367.675,29.177 C369.61,29.177 371.005,30.392 371.005,32.222 C371.005,35.702 365.95,36.242 365.89,38.657 L371.17,38.657 L371.17,39.947 L364.345,39.947 Z M376.705,40.127 C373.885,40.127 372.955,37.697 372.955,34.637 C372.955,31.592 373.885,29.177 376.705,29.177 C379.54,29.177 380.455,31.592 380.455,34.637 C380.455,37.697 379.54,40.127 376.705,40.127 Z M376.705,38.762 C378.445,38.762 378.925,36.962 378.925,34.637 C378.925,32.342 378.445,30.542 376.705,30.542 C374.98,30.542 374.485,32.342 374.485,34.637 C374.485,36.962 374.98,38.762 376.705,38.762 Z M382.225,39.947 L382.225,38.657 L384.565,38.657 L384.565,31.817 C384.565,31.487 384.58,31.172 384.58,31.172 L384.55,31.172 C384.55,31.172 384.43,31.397 384.04,31.787 L383.05,32.747 L382.15,31.817 L384.685,29.357 L386.005,29.357 L386.005,38.657 L388.33,38.657 L388.33,39.947 L382.225,39.947 Z M389.605,36.932 C389.605,35.327 390.895,34.337 391.3,34.067 C390.61,33.587 390.115,32.942 390.115,31.982 C390.115,30.527 391.18,29.177 393.415,29.177 C395.38,29.177 396.745,30.287 396.745,31.997 C396.745,33.332 395.785,34.457 395.47,34.772 C396.295,35.267 396.91,35.927 396.91,37.022 C396.91,38.672 395.5,40.127 393.28,40.127 C391.195,40.127 389.605,38.777 389.605,36.932 Z M394.33,34.202 C394.555,33.962 395.29,33.152 395.29,32.117 C395.29,31.112 394.51,30.512 393.385,30.512 C392.23,30.512 391.585,31.172 391.585,31.982 C391.585,33.182 393.01,33.617 394.33,34.202 Z M391.12,36.812 C391.12,37.997 392.17,38.792 393.265,38.792 C394.39,38.792 395.395,38.072 395.395,36.992 C395.395,35.792 393.79,35.372 392.41,34.712 C392.065,34.952 391.12,35.657 391.12,36.812 Z" id="июнь-2018" fill="#000000"></path>
            <path d="M4.5,845 L4.5,10 C4.5,6.96253803 6.96317697,4.498 10,4.498 L710,4.498 C713.036823,4.498 715.5,6.96253803 715.5,10 L715.5,845 C715.5,848.038642 713.037642,850.501 710,850.501 L10,850.501 C6.96235763,850.501 4.5,848.038642 4.5,845 Z M5.5,845 C5.5,847.486358 7.51464237,849.501 10,849.501 L710,849.501 C712.485358,849.501 714.5,847.486358 714.5,845 L714.5,10 C714.5,7.51469916 712.484415,5.498 710,5.498 L10,5.498 C7.51558542,5.498 5.5,7.51469916 5.5,10 L5.5,845 Z" id="Shape" fill="#1A1B1A" fill-rule="nonzero" opacity="0.100317029"></path>
        </g>
    </g>
</svg>