<?xml version="1.0" encoding="UTF-8"?>
<svg width="33px" height="27px" viewBox="0 0 33 27" version="1.1" xmlns="http://www.w3.org/2000/svg" xmlns:xlink="http://www.w3.org/1999/xlink">
    <!-- Generator: Sketch 49.3 (51167) - http://www.bohemiancoding.com/sketch -->
    <title>finger</title>
    <desc>Created with Sketch.</desc>
    <defs></defs>
    <g id="Page-1" stroke="none" stroke-width="1" fill="none" fill-rule="evenodd">
        <g id="finger" fill="#58585A" fill-rule="nonzero">
            <path d="M4.27988617,6.81044743 C4.1912735,7.15832396 3.8374291,7.36849884 3.48955257,7.27988617 C3.14167604,7.1912735 2.93150116,6.8374291 3.02011383,6.48955257 C3.50285292,4.59441048 5.08285633,3.17880049 7.01944234,2.90633916 C7.37492641,2.85632555 7.70364723,3.10395828 7.75366084,3.45944234 C7.80367445,3.81492641 7.55604172,4.14364723 7.20055766,4.19366084 C5.78628735,4.39263675 4.63242593,5.42644323 4.27988617,6.81044743 Z" id="Shape"></path>
            <path d="M1.28938739,5.8669775 C1.2247825,6.22010141 0.886146402,6.45399228 0.533022498,6.38938739 C0.179898594,6.3247825 -0.0539922794,5.9861464 0.0106126112,5.6330225 C0.530498327,2.7913789 2.74034516,0.559652395 5.57672894,0.0117961016 C5.92919922,-0.0562846224 6.27012317,0.174258664 6.3382039,0.526728944 C6.40628462,0.879199225 6.17574134,1.22012317 5.82327106,1.2882039 C3.51289281,1.7344606 1.71286064,3.55231487 1.28938739,5.8669775 Z" id="Shape"></path>
            <path d="M31.0699389,20.2700417 L29.051424,18.2606604 C28.9730411,18.1826322 28.9158645,18.0858938 28.885305,17.9795998 L28.6540172,17.1750586 C27.7760324,14.0355197 25.8291982,11.301164 23.1843747,9.46664679 L22.5100754,9.06004442 C22.261846,8.91381142 21.9586116,8.8952543 21.6944033,9.01012751 C21.4301949,9.12500072 21.2369496,9.35941857 21.1745915,9.64068959 C21.0838122,10.0501568 20.6347553,10.2677407 20.2571404,10.0852268 L19.6588421,9.79604623 C19.3834548,9.66392811 19.0598546,9.68049828 18.7994027,9.84005441 C18.5389508,9.99961054 18.3771984,10.2803734 18.37,10.57 L18.37,10.66 C18.37,11.1177664 17.9094321,11.4321176 17.4831404,11.2653078 L17.0241689,11.0857092 C16.7390318,10.974692 16.4170225,11.0161516 16.1693062,11.1957752 C15.92159,11.3753989 15.782106,11.6685766 15.8,12.01 L15.8,12.42 C15.8,12.9736165 15.1521125,13.2738072 14.7297609,12.9158821 L8.79899239,7.88807276 C8.52730848,7.62629399 8.09485153,7.63432369 7.83307276,7.90600761 C7.57129399,8.17769152 7.57932369,8.61014847 7.87540696,8.89673011 L15.875407,17.4767301 C16.288451,17.9197199 15.9245051,18.6371051 15.3230831,18.565433 L13.394175,18.3355622 C12.5488423,18.236273 11.7260858,18.6521719 11.3045547,19.3921458 C11.2662936,19.4591977 11.2598084,19.539785 11.2868547,19.6120925 C11.313901,19.6844 11.3716815,19.740949 11.4790131,19.7795898 C13.3371573,20.5502332 15.2395112,21.209628 17.1528245,21.7482211 C18.8848526,22.167191 20.6524135,22.4225054 22.4148301,22.5101692 C23.6713034,22.5388438 24.8696072,23.0453433 25.7696194,23.9303806 L26.5803893,24.7411505 L31.0699389,20.2700417 Z M24.8542609,24.8534671 C24.1939531,24.2041696 23.3109924,23.8309594 22.367794,23.8092016 C20.5066753,23.7168741 18.6583472,23.4498934 16.8240107,23.0057218 C14.8378891,22.4471089 12.8867665,21.7708099 11.0154453,20.9935684 C10.5782058,20.840673 10.2315231,20.5013789 10.0692453,20.0675342 C9.90696749,19.6336895 9.94587861,19.1501656 10.1752113,18.7482645 C10.8548511,17.5551949 12.182128,16.8842637 13.5469169,17.044567 L13.713766,17.0644506 L6.94899239,9.80807276 C6.16028959,9.04812474 6.13697922,7.7926952 6.89692724,7.00399239 C7.65687526,6.21528959 8.9123048,6.19197922 9.67023909,6.92411788 L14.6428868,11.1382261 C14.7931865,10.7454767 15.0552496,10.3977974 15.4061667,10.143341 C15.9348569,9.75997787 16.6019873,9.63407399 17.2273794,9.78918311 C17.4010321,9.35593859 17.7107485,8.98242953 18.1203062,8.73152931 C18.7554129,8.34245499 19.5441294,8.30119815 20.217917,8.62240945 C20.4496981,8.27178529 20.7803128,7.99000021 21.1760593,7.81793648 C21.821902,7.53713532 22.5631416,7.58249716 23.1756253,7.94335321 L23.8902451,8.37575423 C26.8186717,10.4052238 28.9464126,13.3936655 29.904695,16.8204002 L30.0880969,17.4583199 L32.1773859,19.5381579 C32.3727122,19.7315995 32.4826051,19.9950964 32.4826051,20.27 C32.4826051,20.5449036 32.3727122,20.8084005 32.1786727,21.0005641 L27.3118421,25.8473859 C27.1184005,26.0427122 26.8549036,26.1526051 26.58,26.1526051 C26.3057474,26.1526051 26.0428475,26.043232 25.8495333,25.8487721 L24.8542609,24.8534671 Z" id="Shape"></path>
        </g>
    </g>
</svg>