<?xml version="1.0" encoding="UTF-8"?>
<svg width="21px" height="15px" viewBox="0 0 21 15" version="1.1" xmlns="http://www.w3.org/2000/svg" xmlns:xlink="http://www.w3.org/1999/xlink">
    <!-- Generator: Sketch 49.3 (51167) - http://www.bohemiancoding.com/sketch -->
    <title>finger</title>
    <desc>Created with Sketch.</desc>
    <defs></defs>
    <g id="Page-1" stroke="none" stroke-width="1" fill="none" fill-rule="evenodd">
        <g id="finger" transform="translate(1.000000, 0.000000)" fill="#262424" fill-rule="nonzero">
            <path d="M19.1651486,10.549907 L17.4917921,8.86676478 L17.4038788,8.71758357 L17.2237964,8.09729904 C16.5161221,5.65202676 14.981525,3.52825401 12.8990958,2.09962255 L12.3704537,1.78043823 C12.1394185,1.64236819 11.8566428,1.62187777 11.608116,1.72519791 C11.3595892,1.82851804 11.1746811,2.0434388 11.1096204,2.3046049 C11.0560732,2.5195538 10.8188298,2.63132224 10.6189906,2.53574697 L10.157551,2.31505446 C9.9032162,2.19198659 9.60435303,2.20334252 9.36009048,2.34535563 C9.11582793,2.48736874 8.95809804,2.74147389 8.93999999,3 L8.93999999,3.08 C8.93999999,3.32617686 8.69258179,3.49542751 8.46314381,3.40620163 L8.10696066,3.26766037 C7.83808648,3.16669575 7.53640973,3.20833742 7.30494189,3.37836627 C7.07347404,3.54839512 6.9435224,3.82381382 6.95999999,4.13 L6.95999999,4.45 C6.95999999,4.7471271 6.61311942,4.90910214 6.38530626,4.71835185 L1.76310515,0.847644769 C1.49394629,0.600163136 1.07512641,0.617736001 0.827644777,0.886894862 C0.580163139,1.15605372 0.597735998,1.5748736 0.886189386,1.84153198 L7.07618939,8.49153198 C7.29839368,8.73024903 7.10210579,9.11636368 6.77829917,9.07750689 L5.2710746,8.89656356 C4.53738749,8.79298678 3.81572472,9.15215534 3.45881577,9.79472043 C3.40988937,9.88644701 3.40300453,9.99484601 3.43993275,10.0920256 C3.47686098,10.1892051 3.55399652,10.2656764 3.66395053,10.3066469 C5.10947591,10.9054624 6.58905517,11.4185156 8.07859909,11.8389396 C9.44610826,12.154089 10.8404515,12.3386829 12.2434148,12.3902572 C13.1835216,12.4263161 14.0738797,12.8220308 14.7274874,13.4925126 L15.4700502,14.2350755 L19.1651486,10.549907 Z M19.6913793,10.0865517 C19.8182144,10.2073471 19.89,10.3748468 19.89,10.55 C19.89,10.7251532 19.8182144,10.8926529 19.6971585,11.0078158 L15.925,14.76995 C15.6722517,15.0176929 15.2677483,15.0176929 15.015,14.76995 L14.2293864,13.9843211 C13.6979151,13.4391618 12.9773801,13.118924 12.2171425,13.0897637 C10.7704566,13.0365827 9.33208808,12.8461604 7.90501584,12.516865 C6.37260067,12.0847774 4.86699866,11.5627006 3.40850818,10.9582373 C3.12143867,10.8519831 2.89431737,10.6268178 2.78558426,10.340678 C2.67685115,10.0545382 2.69712319,9.7353634 2.84401887,9.46007195 C3.3444443,8.55898032 4.34832155,8.05935478 5.36170083,8.20249311 L5.91249633,8.26858857 L0.393105145,2.33764476 C-0.160640255,1.82849629 -0.196793216,0.966850566 0.312355246,0.413105159 C0.821503708,-0.140640249 1.68314943,-0.176793223 2.22469374,0.321648146 L6.29454673,3.72937754 C6.37461493,3.36667261 6.58364458,3.03964662 6.89053455,2.8142151 C7.30047642,2.51308496 7.83118372,2.43279197 8.31406346,2.59842675 C8.43095315,2.24102324 8.6755978,1.93360663 9.00825617,1.74020061 C9.45367611,1.48123552 9.99866188,1.46052766 10.4610094,1.68425303 L10.586727,1.74437882 C10.7548574,1.44849462 11.0179458,1.2124681 11.339401,1.07882941 C11.7925969,0.890422105 12.3082467,0.927786987 12.7309042,1.18037745 L13.277932,1.51134293 C15.5111125,3.04263395 17.1434546,5.30167885 17.8961212,7.90241643 L18.0512106,8.4366132 L19.6913793,10.0865517 Z" id="Shape"></path>
        </g>
    </g>
</svg>