<?xml version="1.0" encoding="UTF-8"?>
<svg width="19px" height="18px" viewBox="0 0 19 18" version="1.1" xmlns="http://www.w3.org/2000/svg" xmlns:xlink="http://www.w3.org/1999/xlink">
    <!-- Generator: Sketch 49.3 (51167) - http://www.bohemiancoding.com/sketch -->
    <title>flag</title>
    <desc>Created with Sketch.</desc>
    <defs></defs>
    <g id="Page-1" stroke="none" stroke-width="1" fill="none" fill-rule="evenodd">
        <g id="flag" fill="#262424" fill-rule="nonzero">
            <path d="M8.28431643,16.8771084 C8.37980183,17.0451777 8.32096093,17.258831 8.15289161,17.3543164 C7.98482229,17.4498018 7.77116897,17.3909609 7.67568357,17.2228916 L0.0456835744,3.79289161 C-0.0498018254,3.62482229 0.00903906864,3.41116897 0.17710839,3.31568357 C0.345177711,3.22019817 0.558831026,3.27903907 0.654316426,3.44710839 L8.28431643,16.8771084 Z" id="Shape"></path>
            <path d="M6.89528861,1.53620578 L6.85607391,1.53547896 C4.69865877,1.88564415 2.74420933,3.00584429 1.35230573,4.68412925 L3.71215608,8.82467254 C5.13391003,7.18246141 7.06989912,6.06073986 9.25353299,5.63937824 L6.89528861,1.53620578 Z M9.83,6.28999999 L9.58741217,6.28525909 C7.34706391,6.65780035 5.32936063,7.86086023 3.93644202,9.65466208 C3.78347302,9.85165569 3.47941876,9.8299954 3.35591977,9.61330669 L0.625919768,4.82330669 C0.555420388,4.69960998 0.566877325,4.5455349 0.654896241,4.43362551 C2.16291895,2.51628893 4.33610929,1.23532836 6.8,0.840000006 L7.1,0.840000006 C7.22528836,0.840000006 7.34102056,0.90696951 7.4034517,1.01559513 L10.1334517,5.76559513 C10.2675566,5.99892778 10.099125,6.28999999 9.83,6.28999999 Z" id="Shape"></path>
            <path d="M14.0849569,3.30308397 C13.9357842,3.21693081 13.8714811,3.03504079 13.9333608,2.87427473 L14.7702529,0.699996349 L14.1876618,0.699992184 C12.0662511,0.685819912 10.0533871,1.61808966 8.69262512,3.23512359 L11.0563268,7.39108268 C12.4976872,5.79341645 14.538658,4.85655753 16.6968209,4.81154022 L14.0849569,3.30308397 Z M14.6941019,2.84653286 L18.1750431,4.85691603 C18.4851063,5.03598994 18.3580595,5.50999999 18,5.50999999 L16.9077605,5.50999283 C14.7132317,5.49595059 12.6348476,6.49470032 11.2746681,8.21692724 C11.1207651,8.41179555 10.8185266,8.3888794 10.6957645,8.17303395 L7.96576449,3.37303395 C7.89541343,3.24933979 7.90695584,3.09536517 7.99496199,2.98354195 C9.48901382,1.08515541 11.7765977,-0.0161307517 14.19,5.96046423e-09 L15.28,5.96046423e-09 C15.5256604,5.96046423e-09 15.6948841,0.246461509 15.6066392,0.475725269 L14.6941019,2.84653286 Z" id="Shape"></path>
        </g>
    </g>
</svg>