<svg 
 xmlns="http://www.w3.org/2000/svg"
 xmlns:xlink="http://www.w3.org/1999/xlink"
 width="23px" height="18px">
<path fill-rule="evenodd"  fill="rgb(94, 74, 187)"
 d="M8.863,13.771 C8.863,10.887 6.331,9.973 6.331,9.973 C6.542,4.983 11.042,1.323 11.042,1.323 C11.042,0.904 9.425,-0.010 9.003,-0.010 C8.792,-0.010 0.004,4.983 0.004,12.855 C0.004,16.376 1.832,17.990 4.363,17.990 C7.105,17.990 8.863,16.161 8.863,13.771 ZM20.464,13.771 C20.464,10.887 17.862,9.973 17.862,9.973 C18.143,4.983 22.573,1.323 22.573,1.323 C22.573,0.904 21.026,-0.010 20.534,-0.010 C20.393,-0.010 11.534,4.983 11.534,12.855 C11.534,16.376 13.433,17.990 15.964,17.990 C18.706,17.990 20.464,16.161 20.464,13.771 Z"/>
</svg>