<?xml version="1.0" encoding="UTF-8"?>
<svg width="20px" height="15px" viewBox="0 0 20 15" version="1.1" xmlns="http://www.w3.org/2000/svg" xmlns:xlink="http://www.w3.org/1999/xlink">
    <!-- Generator: Sketch 49.3 (51167) - http://www.bohemiancoding.com/sketch -->
    <title>monitor</title>
    <desc>Created with Sketch.</desc>
    <defs></defs>
    <g id="Page-1" stroke="none" stroke-width="1" fill="none" fill-rule="evenodd">
        <g id="monitor">
            <g id="Group" stroke="#262424" stroke-linecap="round" stroke-linejoin="round" stroke-width="0.699999988">
                <rect id="Rectangle-path" x="0.35" y="0.35" width="18.56" height="11.72"></rect>
                <path d="M5.89,14.49 L13.36,14.49" id="Shape"></path>
            </g>
            <path d="M3.80999999,3.71000001 L15.45,3.71000001 L15.45,2.66999999 L3.80999999,2.66999999 L3.80999999,3.71000001 Z M3.46,1.97000001 L15.8,1.97000001 C15.9932997,1.97000001 16.15,2.12670034 16.15,2.32 L16.15,4.06 C16.15,4.25329966 15.9932997,4.40999999 15.8,4.40999999 L3.46,4.40999999 C3.26670034,4.40999999 3.11000001,4.25329966 3.11000001,4.06 L3.11000001,2.32 C3.11000001,2.12670034 3.26670034,1.97000001 3.46,1.97000001 Z" id="Rectangle-path" fill="#262424" fill-rule="nonzero"></path>
            <path d="M3.80999999,9.81000001 L11.5,9.81000001 L11.5,6.08999999 L3.80999999,6.08999999 L3.80999999,9.81000001 Z M3.46,5.39000001 L11.85,5.39000001 C12.0432997,5.39000001 12.2,5.54670034 12.2,5.74 L12.2,10.16 C12.2,10.3532997 12.0432997,10.51 11.85,10.51 L3.46,10.51 C3.26670034,10.51 3.11000001,10.3532997 3.11000001,10.16 L3.11000001,5.74 C3.11000001,5.54670034 3.26670034,5.39000001 3.46,5.39000001 Z" id="Rectangle-path" fill="#262424" fill-rule="nonzero"></path>
            <path d="M13.9,9.81000001 L15.45,9.81000001 L15.45,6.08999999 L13.9,6.08999999 L13.9,9.81000001 Z M13.55,5.39000001 L15.8,5.39000001 C15.9932997,5.39000001 16.15,5.54670034 16.15,5.74 L16.15,10.16 C16.15,10.3532997 15.9932997,10.51 15.8,10.51 L13.55,10.51 C13.3567003,10.51 13.2,10.3532997 13.2,10.16 L13.2,5.74 C13.2,5.54670034 13.3567003,5.39000001 13.55,5.39000001 Z" id="Rectangle-path" fill="#262424" fill-rule="nonzero"></path>
        </g>
    </g>
</svg>