<?xml version="1.0" encoding="UTF-8"?>
<svg width="19px" height="18px" viewBox="0 0 19 18" version="1.1" xmlns="http://www.w3.org/2000/svg" xmlns:xlink="http://www.w3.org/1999/xlink">
    <!-- Generator: Sketch 49.3 (51167) - http://www.bohemiancoding.com/sketch -->
    <title>pyramid</title>
    <desc>Created with Sketch.</desc>
    <defs></defs>
    <g id="Page-1" stroke="none" stroke-width="1" fill="none" fill-rule="evenodd">
        <g id="pyramid" fill="#262424" fill-rule="nonzero">
            <path d="M9.09,5.33999999 C4.04072565,5.33999999 5.96046412e-09,4.26740463 5.96046412e-09,2.67 C5.96046412e-09,1.07259537 4.04072565,5.96046457e-09 9.09,5.96046457e-09 C14.1392743,5.96046457e-09 18.18,1.07259537 18.18,2.67 C18.18,4.26740463 14.1392743,5.33999999 9.09,5.33999999 Z M9.09,4.64000001 C13.6946631,4.64000001 17.48,3.63519661 17.48,2.67 C17.48,1.70480339 13.6946631,0.699999994 9.09,0.699999994 C4.48533692,0.699999994 0.699999994,1.70480339 0.699999994,2.67 C0.699999994,3.63519661 4.48533692,4.64000001 9.09,4.64000001 Z" id="Oval"></path>
            <path d="M9.09,3.92999999 C6.9792646,3.92999999 5.32000001,3.48849976 5.32000001,2.67 C5.32000001,1.85150024 6.9792646,1.41000001 9.09,1.41000001 C11.2007354,1.41000001 12.86,1.85150024 12.86,2.67 C12.86,3.48849976 11.2007354,3.92999999 9.09,3.92999999 Z M9.09,3.23000001 C10.7568923,3.23000001 12.16,2.85665848 12.16,2.67 C12.16,2.48334152 10.7568923,2.10999999 9.09,2.10999999 C7.42310771,2.10999999 6.01999999,2.48334152 6.01999999,2.67 C6.01999999,2.85665848 7.42310771,3.23000001 9.09,3.23000001 Z" id="Oval"></path>
            <path d="M16.19,5.95 C16.19,5.75670034 16.3467003,5.60000001 16.54,5.60000001 C16.7332997,5.60000001 16.89,5.75670034 16.89,5.95 C16.89,7.35949258 13.402689,8.29999999 9.09,8.29999999 C4.82970054,8.29999999 1.29000001,7.33224128 1.29000001,5.95 C1.29000001,5.75670034 1.44670034,5.60000001 1.64,5.60000001 C1.83329966,5.60000001 1.98999999,5.75670034 1.98999999,5.95 C1.98999999,6.70459839 5.26504522,7.60000001 9.09,7.60000001 C12.9631186,7.60000001 16.19,6.72972892 16.19,5.95 Z" id="Shape"></path>
            <path d="M14.75,9.55 C14.75,9.35670034 14.9067003,9.20000001 15.1,9.20000001 C15.2932997,9.20000001 15.45,9.35670034 15.45,9.55 C15.45,10.7453875 12.66574,11.5 9.19,11.5 C5.71425999,11.5 2.93000001,10.7453875 2.93000001,9.55 C2.93000001,9.35670034 3.08670034,9.20000001 3.28,9.20000001 C3.47329966,9.20000001 3.62999999,9.35670034 3.62999999,9.55 C3.62999999,10.1163882 6.15229174,10.8 9.19,10.8 C12.2277083,10.8 14.75,10.1163882 14.75,9.55 Z" id="Shape"></path>
            <path d="M13.65,12.63 C13.65,12.4367003 13.8067003,12.28 14,12.28 C14.1932997,12.28 14.35,12.4367003 14.35,12.63 C14.35,13.6391163 12.0310932,14.33 9.32,14.33 C6.60890682,14.33 4.29000001,13.6391163 4.29000001,12.63 C4.29000001,12.4367003 4.44670034,12.28 4.64,12.28 C4.83329966,12.28 4.98999999,12.4367003 4.98999999,12.63 C4.98999999,13.02522 7.01990506,13.63 9.32,13.63 C11.6200949,13.63 13.65,13.02522 13.65,12.63 Z" id="Shape"></path>
            <path d="M12.32,15.77 C12.32,15.5767003 12.4767003,15.42 12.67,15.42 C12.8632997,15.42 13.02,15.5767003 13.02,15.77 C13.02,16.5720542 11.2579782,17.12 9.27,17.12 C7.29323815,17.12 5.52000001,16.564962 5.52000001,15.77 C5.52000001,15.5767003 5.67670034,15.42 5.87,15.42 C6.06329966,15.42 6.21999999,15.5767003 6.21999999,15.77 C6.21999999,15.9592656 7.69195665,16.42 9.27,16.42 C10.857708,16.42 12.32,15.9652629 12.32,15.77 Z" id="Shape"></path>
            <path d="M6.19253529,15.634092 C6.2675952,15.8122233 6.18403932,16.0174754 6.005908,16.0925353 C5.82777668,16.1675952 5.62252463,16.0840393 5.54746471,15.905908 L0.0274647126,2.805908 C-0.0475952027,2.62777668 0.0359606805,2.42252463 0.214092001,2.34746471 C0.392223322,2.2724048 0.597475372,2.35596068 0.672535287,2.534092 L6.19253529,15.634092 Z" id="Shape"></path>
            <path d="M12.9956481,15.8982705 C12.9248062,16.078121 12.7215799,16.1664899 12.5417295,16.0956481 C12.361879,16.0248062 12.2735101,15.8215799 12.3443519,15.6417295 L17.5043519,2.54172946 C17.5751938,2.361879 17.7784201,2.27351007 17.9582705,2.34435193 C18.138121,2.41519379 18.2264899,2.61842007 18.1556481,2.79827054 L12.9956481,15.8982705 Z" id="Shape"></path>
        </g>
    </g>
</svg>