<?xml version="1.0" encoding="UTF-8"?>
<svg width="18px" height="18px" viewBox="0 0 18 18" version="1.1" xmlns="http://www.w3.org/2000/svg" xmlns:xlink="http://www.w3.org/1999/xlink">
    <!-- Generator: Sketch 49.3 (51167) - http://www.bohemiancoding.com/sketch -->
    <title>rub</title>
    <desc>Created with Sketch.</desc>
    <defs></defs>
    <g id="Page-1" stroke="none" stroke-width="1" fill="none" fill-rule="evenodd">
        <g id="rub" fill="#262424" fill-rule="nonzero">
            <path d="M8.67,17.34 C3.88169122,17.34 5.96046412e-09,13.4583088 5.96046412e-09,8.67 C5.96046412e-09,3.88169122 3.88169122,5.96046412e-09 8.67,5.96046412e-09 C13.4583088,5.96046412e-09 17.34,3.88169122 17.34,8.67 C17.34,13.4583088 13.4583088,17.34 8.67,17.34 Z M8.67,16.64 C13.0717095,16.64 16.64,13.0717095 16.64,8.67 C16.64,4.26829054 13.0717095,0.699999994 8.67,0.699999994 C4.26829054,0.699999994 0.699999994,4.26829054 0.699999994,8.67 C0.699999994,13.0717095 4.26829054,16.64 8.67,16.64 Z" id="Oval"></path>
            <path d="M8.33313204,9.2689672 C8.14040278,9.25412844 7.99619403,9.08586131 8.0110328,8.89313204 C8.02587156,8.70040278 8.19413869,8.55619403 8.38686796,8.5710328 C9.62055597,8.66601787 10.7012619,7.75127749 10.81,6.55 C10.81,5.49658065 9.78536249,4.72999999 8.36,4.72999999 L7.14,4.72999999 C7.1363181,4.72999999 7.13298476,7.27666666 7.12999999,12.37 C7.12999999,12.5632997 6.97329966,12.72 6.78,12.72 C6.58670034,12.72 6.43000001,12.5632997 6.43000001,12.37 L6.43000001,4.74 C6.43000001,4.34787783 6.74787783,4.03000001 7.14,4.03000001 L8.36,4.03000001 C10.1351326,4.03000001 11.51,5.05860453 11.508611,6.58115112 C11.3643737,8.1953054 9.9489358,9.39337244 8.33313204,9.2689672 Z" id="Shape"></path>
            <path d="M6.19,11.31 C5.99670034,11.31 5.84000001,11.1532997 5.84000001,10.96 C5.84000001,10.7667003 5.99670034,10.61 6.19,10.61 L10.19,10.61 C10.3832997,10.61 10.54,10.7667003 10.54,10.96 C10.54,11.1532997 10.3832997,11.31 10.19,11.31 L6.19,11.31 Z" id="Shape"></path>
        </g>
    </g>
</svg>