<?xml version="1.0" encoding="UTF-8"?>
<svg width="15px" height="20px" viewBox="0 0 15 20" version="1.1" xmlns="http://www.w3.org/2000/svg" xmlns:xlink="http://www.w3.org/1999/xlink">
    <!-- Generator: Sketch 49.3 (51167) - http://www.bohemiancoding.com/sketch -->
    <title>screen</title>
    <desc>Created with Sketch.</desc>
    <defs></defs>
    <g id="Page-1" stroke="none" stroke-width="1" fill="none" fill-rule="evenodd">
        <g id="screen" transform="translate(7.000000, 10.000000) scale(-1, 1) rotate(-270.000000) translate(-7.000000, -10.000000) translate(-3.000000, 2.000000)" fill="#262424" fill-rule="nonzero">
            <path d="M0.699999994,4.85999999 L0.699999994,14.53 L15.54,14.53 L15.54,4.85999999 L0.699999994,4.85999999 Z M0.52,4.16000001 L15.72,4.16000001 C16.0071881,4.16000001 16.24,4.39281193 16.24,4.68 L16.24,14.71 C16.24,14.9971881 16.0071881,15.23 15.72,15.23 L0.52,15.23 C0.232811933,15.23 5.96046429e-09,14.9971881 5.96046412e-09,14.71 L5.96046423e-09,4.68 C5.96046423e-09,4.39281193 0.232811933,4.16000001 0.52,4.16000001 Z" id="Rectangle-path"></path>
            <path d="M4.02415651,1.66816611 C4.05470683,1.68217001 4.08740982,1.68908866 4.11999918,1.6890861 L4.02415651,1.66816611 Z M4.34999999,1.69999999 L4.34999999,2.59 C4.34999999,2.78329966 4.19329966,2.93999999 4,2.93999999 C3.80670034,2.93999999 3.65000001,2.78329966 3.65000001,2.59 L3.65001017,1.46266722 C3.64878553,1.30197119 3.72974891,1.15178841 3.86466842,1.06448756 C3.97113298,0.995598724 4.09954786,0.973400943 4.22075703,1.00000437 L19.4297232,1.00131202 C19.5544711,0.990480061 19.6783843,1.02987544 19.7739735,1.11075862 C19.8695627,1.1916418 19.9289244,1.30732517 19.94,1.46 L19.9388898,11.6378547 C19.9289244,11.7626748 19.8695627,11.8783582 19.7739735,11.9592414 C19.6783843,12.0401246 19.5544711,12.0795199 19.46,12.07 L18.23,12.07 C18.0367003,12.07 17.88,11.9132997 17.88,11.72 C17.88,11.5267003 18.0367003,11.37 18.23,11.37 L19.2400262,11.3710515 L19.2410869,1.69999999 L4.34999999,1.69999999 Z M19.4902768,11.371312 C19.4771038,11.3701682 19.4639497,11.3701689 19.4509498,11.3712711 L19.4902768,11.371312 Z" id="Shape"></path>
        </g>
    </g>
</svg>