<?xml version="1.0" encoding="UTF-8"?>
<svg width="20px" height="15px" viewBox="0 0 20 15" version="1.1" xmlns="http://www.w3.org/2000/svg" xmlns:xlink="http://www.w3.org/1999/xlink">
    <!-- Generator: Sketch 49.3 (51167) - http://www.bohemiancoding.com/sketch -->
    <title>rectangles</title>
    <desc>Created with Sketch.</desc>
    <defs></defs>
    <g id="Page-1" stroke="none" stroke-width="1" fill="none" fill-rule="evenodd">
        <g id="rectangles" fill="#262424" fill-rule="nonzero">
            <path d="M0.699999994,3.85999999 L0.699999994,13.53 L15.54,13.53 L15.54,3.85999999 L0.699999994,3.85999999 Z M0.52,3.16000001 L15.72,3.16000001 C16.0071881,3.16000001 16.24,3.39281193 16.24,3.68 L16.24,13.71 C16.24,13.9971881 16.0071881,14.23 15.72,14.23 L0.52,14.23 C0.232811933,14.23 5.96046418e-09,13.9971881 5.96046401e-09,13.71 L5.96046412e-09,3.68 C5.96046412e-09,3.39281193 0.232811933,3.16000001 0.52,3.16000001 Z" id="Rectangle-path"></path>
            <path d="M4.02415651,0.668166106 C4.05470683,0.682170007 4.08740982,0.689088664 4.11999918,0.6890861 L4.02415651,0.668166106 Z M4.34999999,0.699999994 L4.34999999,1.59 C4.34999999,1.78329966 4.19329966,1.93999999 4,1.93999999 C3.80670034,1.93999999 3.65000001,1.78329966 3.65000001,1.59 L3.65001017,0.462667222 C3.64878553,0.301971189 3.72974891,0.151788415 3.86466842,0.0644875551 C3.97113298,-0.00440127594 4.09954786,-0.0265990572 4.22075703,4.369984e-06 L19.4297232,0.00131201709 C19.5544711,-0.00951993887 19.6783843,0.0298754386 19.7739735,0.110758618 C19.8695627,0.191641797 19.9289244,0.307325166 19.94,0.46 L19.9388898,10.6378547 C19.9289244,10.7626748 19.8695627,10.8783582 19.7739735,10.9592414 C19.6783843,11.0401246 19.5544711,11.0795199 19.46,11.07 L18.23,11.07 C18.0367003,11.07 17.88,10.9132997 17.88,10.72 C17.88,10.5267003 18.0367003,10.37 18.23,10.37 L19.2400262,10.3710515 L19.2410869,0.699999994 L4.34999999,0.699999994 Z M19.4902768,10.371312 C19.4771038,10.3701682 19.4639497,10.3701689 19.4509498,10.3712711 L19.4902768,10.371312 Z" id="Shape"></path>
        </g>
    </g>
</svg>