<?xml version="1.0" encoding="UTF-8"?>
<svg width="42px" height="24px" viewBox="0 0 42 24" version="1.1" xmlns="http://www.w3.org/2000/svg" xmlns:xlink="http://www.w3.org/1999/xlink">
    <!-- Generator: Sketch 49.3 (51167) - http://www.bohemiancoding.com/sketch -->
    <title>vk</title>
    <desc>Created with Sketch.</desc>
    <defs></defs>
    <g id="Page-1" stroke="none" stroke-width="1" fill="none" fill-rule="evenodd">
        <g id="vk" fill="#000000" fill-rule="nonzero">
            <path d="M41.7772543,21.6746343 C41.7263971,21.564861 41.6789866,21.4738051 41.6349461,21.4008531 C40.9062486,20.0864119 39.5137271,18.4730284 37.4582241,16.5602422 L37.4147963,16.5164403 L37.3930441,16.4949613 L37.3710622,16.4729452 L37.3490037,16.4729452 C36.4161115,15.582255 35.8253564,14.9833731 35.5779638,14.6767597 C35.1253043,14.0926829 35.0238964,13.501472 35.2712889,12.9024367 C35.4460722,12.4498424 36.1026199,11.4940247 37.2394003,10.0336794 C37.8373551,9.25974316 38.3109242,8.63945887 38.6606439,8.1721361 C41.1828994,4.81373316 42.2764052,2.66766919 41.9409317,1.73310037 L41.8106485,1.51470445 C41.7231037,1.38322198 41.4971569,1.2629393 41.1331145,1.15324272 C40.7682296,1.04377627 40.3018601,1.0256725 39.7331635,1.09862456 L33.4354522,1.14219635 C33.3334314,1.10598881 33.1877532,1.10936409 32.9979579,1.15324272 C32.8083924,1.19712135 32.7135713,1.21913738 32.7135713,1.21913738 L32.603968,1.27398567 L32.5169593,1.33988032 C32.4440436,1.38345211 32.3638517,1.46008629 32.2763069,1.56962945 C32.1892216,1.67878905 32.1163825,1.80689625 32.0581725,1.95287708 C31.3725197,3.71960568 30.592965,5.36221605 29.7180531,6.88063149 C29.1786147,7.78605017 28.6832168,8.57072591 28.2307871,9.23511896 C27.7789701,9.89928188 27.3999157,10.3886207 27.0940067,10.7022915 C26.7876382,11.0162692 26.5111406,11.2678042 26.2628289,11.4578171 C26.0149002,11.6479067 25.825641,11.728223 25.6945919,11.6988427 C25.5632364,11.6694625 25.4395401,11.6403123 25.3224307,11.6111622 C25.1184659,11.4796797 24.9544055,11.3008666 24.8307092,11.0745695 C24.7064768,10.8482724 24.6228382,10.5634448 24.5791041,10.220317 C24.5355998,9.87695901 24.5098648,9.58162207 24.502512,9.33330891 C24.4956953,9.08530259 24.4988355,8.73450367 24.5136178,8.28190939 C24.5287831,7.82908499 24.5355998,7.52270167 24.5355998,7.36206906 C24.5355998,6.80714245 24.5463992,6.20488523 24.5680748,5.55514395 C24.5901334,4.90540268 24.6079793,4.39059587 24.6229148,4.01133721 C24.6377737,3.63169499 24.6446669,3.23003675 24.6446669,2.80659262 C24.6446669,2.38314848 24.618932,2.05106702 24.5680748,1.81004139 C24.5178304,1.56932261 24.4407021,1.33566122 24.3390643,1.10913395 C24.2368139,0.882836817 24.0871528,0.707782556 23.8907706,0.583510908 C23.6940054,0.459392681 23.4493702,0.360895893 23.1582435,0.287713701 C22.3855055,0.112582729 21.4015264,0.0178447752 20.2058466,0.00311628354 C17.4944086,-0.0260338562 15.7521674,0.149327248 14.979506,0.528969462 C14.6733672,0.689371942 14.3963335,0.908534966 14.1486345,1.18576814 C13.8861533,1.50711007 13.8495423,1.68247118 14.0390312,1.71131447 C14.9138665,1.84256681 15.5331905,2.1565445 15.8976924,2.6529407 L16.0290479,2.91598235 C16.1312218,3.1057651 16.2332426,3.44175882 16.3353399,3.92350324 C16.437284,4.40524765 16.5030766,4.93815823 16.5320285,5.52192814 C16.604791,6.58797943 16.604791,7.50053223 16.5320285,8.25966323 C16.4590362,9.01910108 16.3901032,9.61031195 16.3243106,10.0337561 C16.258518,10.4572002 16.1601737,10.800328 16.0290479,11.0630629 C15.8976924,11.3258744 15.8103008,11.486507 15.7664901,11.5448073 C15.722756,11.6031076 15.6862982,11.6398521 15.6573463,11.6542737 C15.4678574,11.7269956 15.2707858,11.764047 15.066821,11.764047 C14.8625498,11.764047 14.6148508,11.6617147 14.3233412,11.4572034 C14.0319081,11.2526922 13.7294458,10.9717769 13.4159542,10.6139973 C13.1024626,10.256141 12.7489133,9.75606264 12.3551532,9.11368562 C11.9616994,8.47130859 11.5534634,7.71210087 11.1306748,6.83606246 L10.7808785,6.20074284 C10.562208,5.79202719 10.2634987,5.19690408 9.88444425,4.41591046 C9.50516002,3.63461001 9.16991626,2.87885428 8.8784832,2.1487967 C8.76198657,1.84218326 8.58697355,1.60875201 8.35375052,1.4481194 L8.24430036,1.38222474 C8.17153784,1.32392446 8.05473484,1.26201877 7.8945041,1.1960474 C7.73404359,1.13015274 7.56661319,1.08289883 7.39152358,1.0538254 L1.39979778,1.09739719 C0.787520288,1.09739719 0.372084571,1.23632062 0.153337446,1.51378392 L0.0657926403,1.64503626 C0.0220585337,1.71814174 0,1.83489572 0,1.99560505 C0,2.15623766 0.0437341067,2.35338466 0.131278912,2.58681591 C1.00596105,4.6457363 1.95715872,6.6313978 2.98487193,8.54410723 C4.01258514,10.4568167 4.90564938,11.997555 5.66352852,13.1649414 C6.42156083,14.3331716 7.19422225,15.4357372 7.98151276,16.4721014 C8.76880327,17.5088492 9.28993613,18.1732422 9.54491133,18.4651272 C9.8001929,18.7575491 10.0007111,18.9761751 10.1464659,19.122156 L10.6932571,19.6477023 C11.04313,19.9981944 11.55691,20.4179564 12.234827,20.9069883 C12.9128971,21.3963271 13.6635766,21.8780715 14.4872483,22.3529887 C15.3110733,22.8271387 16.2694706,23.2140685 17.3629765,23.5133177 C18.4563292,23.8128737 19.5205002,23.9330797 20.5556429,23.8750863 L23.0704689,23.8750863 C23.5804959,23.8309775 23.9669032,23.6703449 24.2295376,23.3931117 L24.3165463,23.2833384 C24.3750626,23.1961948 24.429826,23.0608001 24.4803768,22.8786117 C24.5315404,22.6961165 24.556969,22.4950573 24.556969,22.2763545 C24.5420335,21.6486293 24.5897504,21.0828864 24.6988176,20.5792027 C24.8078082,20.0756724 24.9320406,19.6960302 25.0709787,19.4403528 C25.2098403,19.1849055 25.3665478,18.9693479 25.5409481,18.7946004 C25.7157313,18.6194695 25.8402701,18.5133783 25.913339,18.4768639 C25.9859483,18.4401194 26.0439286,18.4151884 26.0876627,18.4002297 C26.4375355,18.2834758 26.8492948,18.3965476 27.3235533,18.7399823 C27.7974288,19.0831101 28.241893,19.5067844 28.657635,20.0103147 C29.0731474,20.5143053 29.5723749,21.0797413 30.1553942,21.7074665 C30.7387964,22.3354219 31.2489,22.8022077 31.6860879,23.1092814 L32.1232758,23.3720929 C32.415245,23.547454 32.7942994,23.7080866 33.2608987,23.8540675 C33.7266554,23.9999716 34.1347383,24.036486 34.4851473,23.9635339 L40.0830364,23.8760835 C40.6367209,23.8760835 41.0675516,23.7842606 41.3731542,23.6020722 C41.6793696,23.419577 41.8612759,23.2185177 41.9199454,22.9998149 C41.9784618,22.7808821 41.9816021,22.5324922 41.9310513,22.2547987 C41.8791984,21.9777957 41.8281115,21.7841007 41.7772543,21.6746343 Z" id="Shape"></path>
        </g>
    </g>
</svg>