<svg 
 xmlns="http://www.w3.org/2000/svg"
 xmlns:xlink="http://www.w3.org/1999/xlink"
 width="1319.5px" height="609.5px">
<defs>
<filter filterUnits="userSpaceOnUse" id="Filter_0" x="0px" y="0px" width="1319px" height="609px"  >
    <feOffset in="SourceAlpha" dx="0" dy="20" />
    <feGaussianBlur result="blurOut" stdDeviation="23.487" />
    <feFlood flood-color="rgb(82, 76, 84)" result="floodOut" />
    <feComposite operator="atop" in="floodOut" in2="blurOut" />
    <feComponentTransfer><feFuncA type="linear" slope="0.15"/></feComponentTransfer>
    <feMerge>
    <feMergeNode/>
    <feMergeNode in="SourceGraphic"/>
  </feMerge>
</filter>

</defs>
<path fill-rule="evenodd"  fill="rgb(197, 240, 198)"
 d="M109.000,156.622 C109.000,286.988 109.000,494.001 109.000,494.001 C109.000,496.761 111.239,499.002 114.000,499.002 L1204.000,499.002 C1206.761,499.002 1209.000,496.761 1209.000,494.001 L1209.000,74.000 C1209.000,71.239 1206.761,69.002 1204.000,69.002 L114.000,69.002 C111.239,69.002 109.000,71.239 109.000,74.000 C109.000,74.000 109.000,79.330 109.000,101.348 C109.000,108.070 111.889,108.468 111.889,108.468 L136.426,129.002 L111.811,150.183 C111.811,150.183 109.000,151.438 109.000,156.622 Z"/>
<g filter="url(#Filter_0)">
<path fill-rule="evenodd"  fill="rgb(255, 255, 255)"
 d="M89.000,166.623 C89.000,296.988 89.000,484.002 89.000,484.002 C89.000,486.762 91.239,489.002 94.000,489.002 L1224.000,489.002 C1226.761,489.002 1229.000,486.762 1229.000,484.002 L1229.000,64.001 C1229.000,61.239 1226.761,58.999 1224.000,58.999 L94.000,58.999 C91.239,58.999 89.000,61.239 89.000,64.001 C89.000,64.001 89.000,89.332 89.000,111.348 C89.000,118.072 91.889,118.468 91.889,118.468 L116.426,138.999 L91.811,160.184 C91.811,160.184 89.000,161.438 89.000,166.623 Z"/>
</g>
<path fill-rule="evenodd"  stroke="rgb(26, 27, 26)" stroke-width="1px" stroke-linecap="butt" stroke-linejoin="miter" opacity="0.102" fill="none"
 d="M95.000,166.623 C95.000,296.988 95.000,478.000 95.000,478.000 C95.000,480.762 97.239,483.001 100.000,483.001 L1219.000,483.001 C1221.761,483.001 1224.000,480.762 1224.000,478.000 L1224.000,70.000 C1224.000,67.241 1221.761,65.001 1219.000,65.001 L100.000,65.001 C97.239,65.001 95.000,67.241 95.000,70.000 C95.000,70.000 95.000,85.329 95.000,107.350 C95.000,114.072 97.889,118.468 97.889,118.468 L122.426,138.999 L97.811,160.184 C97.811,160.184 95.000,161.438 95.000,166.623 Z"/>
</svg>