<svg 
 xmlns="http://www.w3.org/2000/svg"
 xmlns:xlink="http://www.w3.org/1999/xlink"
 width="1319.5px" height="719.5px">
<defs>
<filter filterUnits="userSpaceOnUse" id="Filter_0" x="0px" y="0px" width="1319px" height="719px"  >
    <feOffset in="SourceAlpha" dx="0" dy="30" />
    <feGaussianBlur result="blurOut" stdDeviation="9.487" />
    <feFlood flood-color="rgb(82, 76, 84)" result="floodOut" />
    <feComposite operator="atop" in="floodOut" in2="blurOut" />
    <feComponentTransfer><feFuncA type="linear" slope="0.15"/></feComponentTransfer>
    <feMerge>
    <feMergeNode/>
    <feMergeNode in="SourceGraphic"/>
  </feMerge>
</filter>

</defs>
<path fill-rule="evenodd"  fill="rgb(197, 240, 198)"
 d="M109.000,166.624 C109.000,296.988 109.000,603.999 109.000,603.999 C109.000,606.762 111.239,609.002 114.000,609.002 L1204.000,609.002 C1206.761,609.002 1209.000,606.762 1209.000,603.999 L1209.000,73.999 C1209.000,71.239 1206.761,69.000 1204.000,69.000 L114.000,69.000 C111.239,69.000 109.000,71.239 109.000,73.999 C109.000,73.999 109.000,89.327 109.000,111.349 C109.000,118.072 111.889,118.467 111.889,118.467 L136.426,139.001 L111.811,160.184 C111.811,160.184 109.000,161.438 109.000,166.624 Z"/>
<g filter="url(#Filter_0)">
<path fill-rule="evenodd"  fill="rgb(255, 255, 255)"
 d="M89.000,166.624 C89.000,296.988 89.000,594.004 89.000,594.004 C89.000,596.762 91.239,599.000 94.000,599.000 L1224.000,599.000 C1226.761,599.000 1229.000,596.762 1229.000,594.004 L1229.000,64.000 C1229.000,61.239 1226.761,59.001 1224.000,59.001 L94.000,59.001 C91.239,59.001 89.000,61.239 89.000,64.000 C89.000,64.000 89.000,89.327 89.000,111.349 C89.000,118.072 91.889,118.467 91.889,118.467 L116.426,139.001 L91.811,160.184 C91.811,160.184 89.000,161.438 89.000,166.624 Z"/>
</g>
<path fill-rule="evenodd"  stroke="rgb(26, 27, 26)" stroke-width="1px" stroke-linecap="butt" stroke-linejoin="miter" opacity="0.102" fill="none"
 d="M95.000,166.624 C95.000,296.988 95.000,588.000 95.000,588.000 C95.000,590.763 97.239,593.001 100.000,593.001 L1219.000,593.001 C1221.761,593.001 1224.000,590.763 1224.000,588.000 L1224.000,70.001 C1224.000,67.238 1221.761,65.000 1219.000,65.000 L100.000,65.000 C97.239,65.000 95.000,67.238 95.000,70.001 C95.000,70.001 95.000,85.329 95.000,107.346 C95.000,114.074 97.889,118.467 97.889,118.467 L122.426,139.001 L97.811,160.184 C97.811,160.184 95.000,161.438 95.000,166.624 Z"/>
</svg>