<svg 
 xmlns="http://www.w3.org/2000/svg"
 xmlns:xlink="http://www.w3.org/1999/xlink"
 width="1319.5px" height="785.5px">
<defs>
<filter filterUnits="userSpaceOnUse" id="Filter_0" x="0px" y="0px" width="1319px" height="785px"  >
    <feOffset in="SourceAlpha" dx="0" dy="20" />
    <feGaussianBlur result="blurOut" stdDeviation="23.487" />
    <feFlood flood-color="rgb(82, 76, 84)" result="floodOut" />
    <feComposite operator="atop" in="floodOut" in2="blurOut" />
    <feComponentTransfer><feFuncA type="linear" slope="0.15"/></feComponentTransfer>
    <feMerge>
    <feMergeNode/>
    <feMergeNode in="SourceGraphic"/>
  </feMerge>
</filter>

</defs>
<path fill-rule="evenodd"  fill="rgb(197, 240, 198)"
 d="M109.000,362.621 C109.000,492.987 109.000,670.000 109.000,670.000 C109.000,672.761 111.239,675.001 114.000,675.001 L1204.000,675.001 C1206.761,675.001 1209.000,672.761 1209.000,670.000 L1209.000,280.001 C1209.000,277.238 1206.761,275.001 1204.000,275.001 L114.000,275.001 C111.239,275.001 109.000,277.238 109.000,280.001 C109.000,280.001 109.000,285.329 109.000,307.347 C109.000,314.073 111.889,314.467 111.889,314.467 L136.426,335.001 L111.811,356.183 C111.811,356.183 109.000,357.438 109.000,362.621 Z"/>
<g filter="url(#Filter_0)">
<path fill-rule="evenodd"  fill="rgb(255, 255, 255)"
 d="M89.000,156.621 C89.000,286.988 89.000,659.998 89.000,659.998 C89.000,662.762 91.239,664.999 94.000,664.999 L1224.000,664.999 C1226.761,664.999 1229.000,662.762 1229.000,659.998 L1229.000,63.999 C1229.000,61.238 1226.761,58.998 1224.000,58.998 L94.000,58.998 C91.239,58.998 89.000,61.238 89.000,63.999 C89.000,63.999 89.000,79.328 89.000,101.346 C89.000,108.071 91.889,108.467 91.889,108.467 L116.426,129.000 L91.811,150.183 C91.811,150.183 89.000,151.435 89.000,156.621 Z"/>
</g>
<path fill-rule="evenodd"  stroke="rgb(26, 27, 26)" stroke-width="1px" stroke-linecap="butt" stroke-linejoin="miter" opacity="0.102" fill="none"
 d="M95.000,156.621 C95.000,286.988 95.000,653.999 95.000,653.999 C95.000,656.760 97.239,659.000 100.000,659.000 L1219.000,659.000 C1221.761,659.000 1224.000,656.760 1224.000,653.999 L1224.000,70.001 C1224.000,67.237 1221.761,64.999 1219.000,64.999 L100.000,64.999 C97.239,64.999 95.000,67.237 95.000,70.001 C95.000,70.001 95.000,75.329 95.000,97.344 C95.000,104.073 97.889,108.467 97.889,108.467 L122.426,129.000 L97.811,150.183 C97.811,150.183 95.000,151.435 95.000,156.621 Z"/>
</svg>