<?xml version="1.0" encoding="UTF-8"?>
<svg width="721px" height="431px" viewBox="0 0 721 431" version="1.1" xmlns="http://www.w3.org/2000/svg" xmlns:xlink="http://www.w3.org/1999/xlink">
    <!-- Generator: Sketch 49.2 (51160) - http://www.bohemiancoding.com/sketch -->
    <title>sign</title>
    <desc>Created with Sketch.</desc>
    <defs></defs>
    <g id="Page-1" stroke="none" stroke-width="1" fill="none" fill-rule="evenodd">
        <g id="sign" fill="#FD6247" fill-rule="nonzero">
            <path d="M289,0 C293.57,2.09 295.13,5.7 293.24,10.19 C289.78,18.43 286.67,26.95 282.09,34.56 C270.09,54.56 253.8,71.15 237.64,87.75 C229.16,96.45 220.43,104.9 212.39,114.21 C214.94,112.21 217.44,110.12 220.06,108.21 C231.35,99.9 242.71,91.39 256.77,88.69 C263.265628,87.455195 269.947056,87.5846009 276.39,89.07 C286.92,91.61 291.79,103.51 286.51,113.01 C283.31,118.76 278.87,123.89 274.51,128.92 C265.28,139.65 255.76,150.12 246.39,160.73 C245.39,161.81 244.68,163.06 243.83,164.24 L244.56,165.31 C246.73,164.03 249.22,163.1 251.02,161.42 C256.85,155.96 262.38,150.18 268.11,144.61 C270.592581,142.151782 273.217079,139.841155 275.97,137.69 C276.83,137.03 279.08,136.74 279.47,137.24 C280.294632,138.371926 280.576505,139.810574 280.24,141.17 C279.147236,143.772136 277.790116,146.255162 276.19,148.58 C268.99,159.49 263.19,171.02 260.04,183.79 C257.61,193.66 261.79,197.84 271.72,195.21 C285.07,191.67 296.14,183.98 306.72,175.47 C311.11,171.92 315.09,167.85 319.28,164.04 C320.659409,162.600656 322.203353,161.328581 323.88,160.25 C324.95,159.67 326.53,160.03 327.88,159.97 C327.88,161.36 328.25,162.97 327.67,164.08 C326.517985,165.904948 325.198988,167.618973 323.73,169.2 C320.93,172.71 317.79,176 315.43,179.78 C312.67,184.19 313.96,187.39 318.84,189.21 C327.84,192.56 336.28,191.21 343.73,185.29 C348.27,181.65 352.19,177.29 356.73,173.59 C359.240187,171.465076 362.170778,169.894143 365.33,168.98 C369.33,167.98 370.97,170.11 369.64,174.08 C368.22,178.33 366.43,182.46 364.82,186.65 C364.237831,188.0295 363.736973,189.44192 363.32,190.88 C361.94,196.3 360.68,201.8 365.76,206.11 C369.36,209.16 377.59,208.85 382.76,205.36 C384.294766,204.14789 385.510025,202.579038 386.3,200.79 C398.41,176.53 413.6,154.31 430.94,133.55 C433.672449,130.42108 436.940092,127.803579 440.59,125.82 C442.14,124.95 446.2,125.49 446.85,126.65 C448.59,129.77 445.74,130.56 443.15,131.41 C441.28648,132.088076 439.62489,133.226764 438.32,134.72 C422.893941,152.017105 409.475202,171.004622 398.32,191.32 C396.92,193.87 396.12,196.75 394.67,200.41 L401.02,198.23 L401.81,198.86 L397.51,204.69 C404.24,204.16 409.08,200.96 413.33,197.04 C423.99,187.22 434.17,176.87 445.01,167.26 C461.2,152.9 477.91,139.12 494.17,124.82 C504.42,115.82 514.17,106.27 524.28,97.05 C530.17,91.65 536.12,86.31 542.21,81.13 C544.139866,79.5461066 546.333282,78.3140023 548.69,77.49 C549.76,77.1 552.14,77.69 552.45,78.49 C552.94,79.68 552.35,81.43 551.88,82.84 C551.66,83.51 550.68,83.94 550.03,84.46 C509.12,118.01 475.03,157.7 444.96,201.03 C443.22,203.55 442.79,206.98 441.75,210.03 C444.761947,209.967812 447.767403,209.724036 450.75,209.3 C466.28,206.19 479.41,197.94 492.34,189.39 C506.09,180.29 519.66,170.92 533.41,161.83 C535.597266,160.366855 538.085103,159.413412 540.69,159.04 C543.83,158.66 545.22,160.71 543.27,163.41 C540.724545,166.901681 537.909252,170.188418 534.85,173.24 C523.44,184.73 518.28,198.73 518.21,214.68 C518.15,229.18 526.59,237.45 541.1,237.91 C556.436294,238.248079 571.706755,235.801824 586.17,230.69 C613.77,221.29 640.58,209.92 665.4,194.41 C686.27,181.41 702.4,163.55 715.71,143.05 C717.71,139.92 719.25,136.45 720.99,133.13 L720.99,138.13 C706.54,168.67 683.1,190.3 653.66,205.95 C627.34,219.95 600.71,233.24 571.66,240.88 C559.24,244.15 546.8,246.88 533.78,244.61 C514.57,241.28 508.54,225.4 511.39,211.13 C513.12,202.45 516.89,194.13 519.88,185.75 C520.88,182.82 522.41,180.04 523.69,177.19 L522.85,176.07 C520.85,177.15 518.74,178.12 516.85,179.33 C502.3,188.39 488.11,198.12 473.12,206.33 C464.12,211.33 454,214.78 444.01,217.56 C435.11,220.04 430.12,214 434.63,206.04 C441.25,194.37 449.25,183.48 456.95,172.45 C461.43,166.04 466.47,160.02 471.22,153.8 C472.42024,152.384621 473.172149,150.644091 473.38,148.8 C461.18,159.25 448.81,169.53 436.82,180.22 C428,188.09 419.76,196.62 411.08,204.65 C404.03,211.17 395.94,214.29 385.98,212.42 C382.71,211.81 378.98,213.77 375.44,214.42 C361.09,217.04 351.85,207.59 355.34,193.42 C356.87,187.2 359.61,181.28 361.98,174.76 C360.74,175.99 359.61,177.21 358.38,178.31 C352.68,183.39 347.28,188.9 341.13,193.38 C334.052309,198.718865 324.742043,200.083366 316.43,197 C307.95,194.09 305.82,190.22 307.58,180.44 L303.33,183.44 C295.92,188.81 288.68,194.44 281.06,199.44 C275.733802,202.991823 269.252472,204.37608 262.94,203.31 C256.94,202.31 253.53,198.79 252.75,192.74 C251.33,181.81 255.32,172.15 260.03,162.69 C260.919214,161.229899 261.535886,159.620455 261.85,157.94 C259.06,160.42 256.35,163.02 253.45,165.37 C239.73,176.49 224.62,183.7 206.35,182.29 C197.22,181.58 190.65,177.39 186.61,167.61 L174.76,179.15 C181.58,189.15 188.64,197.66 193.76,207.24 C207.27,232.43 209.47,259.44 204.22,287.24 C197.48,322.91 185.75,356.77 164.73,386.61 C156.17,398.76 145.5,409.5 135.2,420.33 C129.09,426.75 121,430.04 111.9,430.33 C102.8,430.62 96.47,426.33 93.78,417.77 C89.7479192,405.02307 88.7547738,391.509444 90.88,378.31 C96.48,342.98 104.16,308.15 116.37,274.43 C127.88,242.64 142.84,212.67 163.22,185.56 C163.91,184.64 164.5,183.63 165.52,182.09 C161.33,179.02 157.36,175.76 152.99,173.17 C151.99,172.57 149.17,173.8 147.99,174.99 C144.75,178.21 142.25,182.38 135.15,181.99 C137.75,179.08 139.42,176.82 141.49,174.99 C143.711162,173.222169 146.031618,171.582825 148.44,170.08 L147.1,168.49 C146.47,167.49 145.9,166.49 145.19,165.64 C135.64,153.64 134.95,140.57 142.57,127.94 C149.503231,116.570102 157.33842,105.775399 166,95.66 C188.47,69.18 212.84,44.43 240.8,23.74 C253.23,14.53 267.54,7.84 281,0 L289,0 Z M200.92,255.58 C200.48,251.91 200.06,244.58 198.66,237.45 C195.05,219.09 187.28,202.78 173.58,189.64 C170.67,186.85 168.47,186.21 165.65,190.2 C142.212629,223.429472 124.442057,260.312109 113.06,299.35 C104.96,326.83 99.76,354.85 96.4,383.24 C95.17,393.63 94.4,404.13 97.5,414.43 C100.36,424.09 108.1,429.32 117.14,425.51 C124.541961,422.219694 131.282132,417.60764 137.03,411.9 C151.87,397.51 162.7,380 172.43,362 C189.68,329.94 200.23,296 200.93,255.6 L200.92,255.58 Z M154.35,163.35 C161.15,157.1 168.35,151.02 174.98,144.28 C198.5,120.22 221.59,95.73 245.27,71.83 C258.99,57.98 270.27,42.45 280.27,25.83 C282.307994,22.3997952 283.983676,18.766916 285.27,14.99 C287.27,9.29 285.17,6.82 279.7,8.99 C271.43,12.28 262.81,15.56 255.7,20.7 C222.98,44.3 194.28,72.31 168.13,102.95 C159.38,113.21 150.7,123.6 145.79,136.44 C142.34,145.44 145.79,156.83 154.4,163.33 L154.35,163.35 Z M197.57,147.4 L199.21,148.62 C201.57,147.46 203.87,146.12 206.31,145.18 C208.91,144.18 211.61,143.04 214.31,142.85 C220.96,142.37 223.47,145.61 221.94,152.09 C221.1,155.64 219.94,159.09 219.41,162.73 C218.63,168.08 221.79,170.57 226.54,168.02 C230.978797,165.747419 235.053661,162.825247 238.63,159.35 C249.7,148.07 260.63,136.6 271.04,124.74 C275.010809,120.060808 278.263103,114.816695 280.69,109.18 C283.58,102.71 281.08,98.18 274.69,95.04 C267.84,91.7 261.26,92.43 254.62,95.59 C236.49,104.23 220.62,115.95 207.84,131.42 C203.84,136.26 200.97,142.05 197.58,147.42 L197.57,147.4 Z M200.82,125.02 L156.8,167.08 L169.51,177.3 C172.19,174.3 174.51,171.76 176.83,169.12 C180.26,165.12 184.55,161.51 186.83,156.91 C192.16,146.13 196.52,134.91 200.75,124.99 L200.82,125.02 Z M214.34,148.76 C206.34,150.89 199.92,154.23 195.99,161.12 C194.24,164.19 194.1,167.79 197.3,170.12 C202.51,173.92 208.3,175.99 214.3,174.28 L214.34,148.76 Z" id="Shape"></path>
            <path d="M0,411 C17.83,373.13 28.08,332.5 42.63,293.44 C62.43,240.29 82.16,187.14 106.87,136.04 C118.67,111.64 131.87,87.93 144.14,63.74 C147.96,56.2 150.82,48.17 153.9,40.28 C154.49,38.76 154.06,36.83 154.09,35.09 C152.400816,34.8868805 150.695309,34.8567241 149,35 C147.220177,35.4317794 145.50768,36.1046666 143.91,37 C103,57.63 65.11,82.48 34.66,117.23 C30.31,122.23 27.95,128.93 24.74,134.88 C23.66,136.88 22.8,139.01 21.64,141.52 C17.75,138.52 18.22,135.26 19.42,131.9 C23.79,119.68 31.71,109.84 40.77,100.9 C63.68,78.29 89.62,59.67 117.61,43.9 C127.899375,38.1633125 138.532912,33.0669631 149.45,28.64 C158.61,24.93 163,28.45 161,38 C159.334628,45.4425562 156.698743,52.6340835 153.16,59.39 C139.36,86.72 124.85,113.69 111.16,141.05 C88.9,185.47 71.8,232 55.28,278.71 C40.76,319.71 26.65,360.93 12.28,402.03 C10.69,406.57 8.82,411.03 7.01,415.48 C5.44,419.35 3.16,420.38 0.01,416.99 L0,411 Z" id="Shape"></path>
        </g>
    </g>
</svg>