<?xml version="1.0" encoding="UTF-8"?>
<svg width="1140px" height="616px" viewBox="0 0 1140 616" version="1.1" xmlns="http://www.w3.org/2000/svg" xmlns:xlink="http://www.w3.org/1999/xlink">
    <!-- Generator: Sketch 49.3 (51167) - http://www.bohemiancoding.com/sketch -->
    <title>sadasd</title>
    <desc>Created with Sketch.</desc>
    <defs></defs>
    <g id="Page-1" stroke="none" stroke-width="1" fill="none" fill-rule="evenodd">
        <g id="sadasd" transform="translate(0.000000, -1.000000)">
            <path d="M20,304.621 C20,434.987 20,612 20,612 C20,614.761 22.239,617.001 25,617.001 L1115,617.001 C1117.761,617.001 1120,614.761 1120,612 L1120,222.001 C1120,219.238 1117.761,217.001 1115,217.001 L25,217.001 C22.239,217.001 20,219.238 20,222.001 C20,222.001 20,227.329 20,249.347 C20,256.073 22.889,256.467 22.889,256.467 L47.426,277.001 L22.811,298.183 C22.811,298.183 20,299.438 20,304.621 Z" id="Shape" fill="#C5F0C6"></path>
            <path d="M0,98.621 C0,228.988 0,601.998 0,601.998 C0,604.762 2.239,606.999 5,606.999 L1135,606.999 C1137.761,606.999 1140,604.762 1140,601.998 L1140,5.999 C1140,3.238 1137.761,0.998 1135,0.998 L5,0.998 C2.239,0.998 0,3.238 0,5.999 C0,5.999 0,21.328 0,43.346 C0,50.071 2.889,50.467 2.889,50.467 L27.426,71 L2.811,92.183 C2.811,92.183 0,93.435 0,98.621 Z" id="Shape" fill="#FFFFFF"></path>
            <path d="M6,98.621 C6,228.988 6,595.999 6,595.999 C6,598.76 8.239,601 11,601 L1130,601 C1132.761,601 1135,598.76 1135,595.999 L1135,12.001 C1135,9.237 1132.761,6.999 1130,6.999 L11,6.999 C8.239,6.999 6,9.237 6,12.001 C6,12.001 6,17.329 6,39.344 C6,46.073 8.889,50.467 8.889,50.467 L33.426,71 L8.811,92.183 C8.811,92.183 6,93.435 6,98.621 Z" id="Shape" stroke="#1A1B1A" opacity="0.102"></path>
        </g>
    </g>
</svg>