<?xml version="1.0" encoding="UTF-8"?>
<svg width="283px" height="378px" viewBox="0 0 283 378" version="1.1" xmlns="http://www.w3.org/2000/svg" xmlns:xlink="http://www.w3.org/1999/xlink">
    <!-- Generator: Sketch 49.3 (51167) - http://www.bohemiancoding.com/sketch -->
    <title>line-3</title>
    <desc>Created with Sketch.</desc>
    <defs></defs>
    <g id="Page-1" stroke="none" stroke-width="1" fill="none" fill-rule="evenodd">
        <g id="line-3" transform="translate(1.000000, 0.000000)" fill="#5E4ABB" fill-rule="nonzero">
            <path d="M0.305,377.989 C-0.0539850874,377.989 -0.345,377.697985 -0.345,377.339 C-0.345,376.980015 -0.0539850874,376.689 0.305,376.689 C150.151973,376.689 273.337355,258.853522 280.372722,109.742366 C280.389641,109.38378 280.694048,109.106803 281.052634,109.123722 C281.41122,109.140641 281.688197,109.445048 281.671278,109.803634 C274.603232,259.60738 150.846914,377.989 0.305,377.989 Z M278.649755,49.803223 C278.703204,50.1582069 278.458761,50.4893067 278.103777,50.5427552 C277.748793,50.5962036 277.417693,50.3517609 277.364245,49.996777 C276.020959,41.075199 274.327531,32.8190467 272.364725,25.2381989 C270.545634,18.2124109 268.597423,12.1449369 266.650346,7.05177025 C265.969893,5.27183773 265.33857,3.74148727 264.772664,2.46272284 C264.575195,2.01650745 264.400186,1.63393975 264.249673,1.31527046 C264.160222,1.12588204 264.099338,1.00089298 264.069056,0.940554109 C263.908035,0.619707469 264.037599,0.229076656 264.358446,0.0680557673 C264.679293,-0.0929651209 265.069923,0.0365992507 265.230944,0.357445891 C265.26585,0.426997804 265.331266,0.561289568 265.425154,0.760071286 C265.580206,1.08835223 265.759654,1.48062259 265.961457,1.93663235 C266.536328,3.2356541 267.176159,4.78662937 267.864638,6.58755623 C269.828801,11.7254164 271.791828,17.8390331 273.623226,24.9123525 C275.597223,32.5364258 277.299705,40.8367135 278.649755,49.803223 Z" id="Shape"></path>
        </g>
    </g>
</svg>