<?xml version="1.0" encoding="UTF-8"?>
<svg width="59px" height="346px" viewBox="0 0 59 346" version="1.1" xmlns="http://www.w3.org/2000/svg" xmlns:xlink="http://www.w3.org/1999/xlink">
    <!-- Generator: Sketch 49.3 (51167) - http://www.bohemiancoding.com/sketch -->
    <title>line-2</title>
    <desc>Created with Sketch.</desc>
    <defs></defs>
    <g id="Page-1" stroke="none" stroke-width="1" fill="none" fill-rule="evenodd">
        <g id="line-2" transform="translate(0.000000, 1.000000)" fill="#5E4ABB" fill-rule="nonzero">
            <path d="M57,0.544 C57,0.185014913 57.2910149,-0.106 57.65,-0.106 C58.0089851,-0.106 58.3,0.185014913 58.3,0.544 C58.3,15.3105068 58.1295702,26.2842128 57.6837574,42.5967575 C57.6739502,42.9556086 57.3750936,43.2385646 57.0162425,43.2287574 C56.6573914,43.2189502 56.3744354,42.9200936 56.3842426,42.5612425 C56.8297506,26.2598522 57,15.2977598 57,0.544 Z M52.8252994,111.375273 C52.8361946,111.016453 53.1359078,110.734404 53.4947275,110.745299 C53.8535472,110.756195 54.1355958,111.055908 54.1247006,111.414727 C52.1871663,175.225066 44.2635172,228.951419 31.9138667,272.523747 C22.6483488,305.214566 11.3822462,330.115798 1.30955865,344.033098 C1.09908381,344.323909 0.692711909,344.389033 0.401901598,344.178559 C0.111091288,343.968084 0.045966518,343.561712 0.256441353,343.270902 C10.2321831,329.487551 21.4364976,304.722886 30.6631333,272.169253 C42.982841,228.70257 50.8909169,175.081811 52.8252994,111.375273 Z" id="Shape"></path>
        </g>
    </g>
</svg>