<?xml version="1.0" encoding="UTF-8"?>
<svg width="17px" height="17px" viewBox="0 0 17 17" version="1.1" xmlns="http://www.w3.org/2000/svg" xmlns:xlink="http://www.w3.org/1999/xlink">
    <!-- Generator: Sketch 49.3 (51167) - http://www.bohemiancoding.com/sketch -->
    <title>Ресурс 1</title>
    <desc>Created with Sketch.</desc>
    <defs></defs>
    <g id="Page-1" stroke="none" stroke-width="1" fill="none" fill-rule="evenodd">
        <g id="Ресурс-1" fill="#262424" fill-rule="nonzero">
            <path d="M7.21,14.42 C3.22802697,14.42 2.38418583e-08,11.191973 2.38418583e-08,7.21 C2.38418583e-08,3.22802697 3.22802697,2.38418583e-08 7.21,2.38418583e-08 C11.191973,2.38418583e-08 14.42,3.22802697 14.42,7.21 C14.42,11.191973 11.191973,14.42 7.21,14.42 Z M7.21,13.12 C10.4740029,13.12 13.12,10.4740029 13.12,7.21 C13.12,3.94599712 10.4740029,1.29999998 7.21,1.29999998 C3.94599712,1.29999998 1.29999998,3.94599712 1.29999998,7.21 C1.29999998,10.4740029 3.94599712,13.12 7.21,13.12 Z" id="Oval"></path>
            <path d="M16.4396194,15.5203806 C16.6934602,15.7742214 16.6934602,16.1857786 16.4396194,16.4396194 C16.1857786,16.6934602 15.7742214,16.6934602 15.5203806,16.4396194 L12.5203806,13.4396194 C12.2665398,13.1857786 12.2665398,12.7742214 12.5203806,12.5203806 C12.7742214,12.2665398 13.1857786,12.2665398 13.4396194,12.5203806 L16.4396194,15.5203806 Z" id="Shape"></path>
        </g>
    </g>
</svg>