<?xml version="1.0" encoding="UTF-8"?>
<svg width="19px" height="19px" viewBox="0 0 19 19" version="1.1" xmlns="http://www.w3.org/2000/svg" xmlns:xlink="http://www.w3.org/1999/xlink">
    <!-- Generator: Sketch 49.3 (51167) - http://www.bohemiancoding.com/sketch -->
    <title>Ресурс 1</title>
    <desc>Created with Sketch.</desc>
    <defs></defs>
    <g id="Page-1" stroke="none" stroke-width="1" fill="none" fill-rule="evenodd">
        <g id="Ресурс-1" fill="#262424" fill-rule="nonzero">
            <path d="M13.3458843,4.49123717 C13.1850385,4.38403003 13.1415557,4.16673015 13.2487628,4.0058843 C13.35597,3.84503845 13.5732698,3.80155569 13.7341157,3.90876283 C16.3579835,5.65762587 17.6747586,8.81128156 17.0735802,11.906728 C17.0367274,12.0964821 16.8530261,12.2204331 16.663272,12.1835802 C16.4735179,12.1467274 16.3495669,11.9630261 16.3864198,11.773272 C16.9337842,8.95491153 15.734879,6.08355238 13.3458843,4.49123717 Z" id="Shape"></path>
            <path d="M2.34924943,9.93290925 C2.336597,10.1257944 2.16997588,10.2719019 1.97709075,10.2592494 C1.78420562,10.246597 1.63809814,10.0799759 1.65075057,9.88709075 C1.85628931,6.75367179 3.91848217,4.04807476 6.88533502,3.01931595 C7.06796678,2.95598823 7.26735633,3.05270326 7.33068405,3.23533502 C7.39401177,3.41796678 7.29729674,3.61735633 7.11466498,3.68068405 C4.41372723,4.61723656 2.53636599,7.0803345 2.34924943,9.93290925 Z" id="Shape"></path>
            <path d="M12.4018478,16.8629023 C12.576976,16.7810801 12.7852755,16.8567196 12.8670977,17.0318478 C12.9489199,17.206976 12.8732804,17.4152755 12.6981522,17.4970977 C9.96997736,18.7717368 6.75203042,18.3644017 4.42750877,16.4501808 C4.27829205,16.3273023 4.25694072,16.1067255 4.37981923,15.9575088 C4.50269775,15.808292 4.72327452,15.7869407 4.87249123,15.9098192 C6.98866908,17.6524711 9.91819568,18.0232973 12.4018478,16.8629023 Z" id="Shape"></path>
            <path d="M9.58,5.83999999 C7.96732853,5.83999999 6.66000001,4.53267147 6.66000001,2.92 C6.66000001,1.30732853 7.96732853,5.96046457e-09 9.58,5.96046457e-09 C11.1926715,5.96046457e-09 12.5,1.30732853 12.5,2.92 C12.5,4.53267147 11.1926715,5.83999999 9.58,5.83999999 Z M9.58,5.14000001 C10.8060721,5.14000001 11.8,4.14607215 11.8,2.92 C11.8,1.69392785 10.8060721,0.699999994 9.58,0.699999994 C8.35392785,0.699999994 7.35999999,1.69392785 7.35999999,2.92 C7.35999999,4.14607215 8.35392785,5.14000001 9.58,5.14000001 Z" id="Oval"></path>
            <path d="M2.92,17.15 C1.30732853,17.15 5.96046457e-09,15.8426715 5.96046457e-09,14.23 C5.96046457e-09,12.6173285 1.30732853,11.31 2.92,11.31 C4.53267147,11.31 5.83999999,12.6173285 5.83999999,14.23 C5.83999999,15.8426715 4.53267147,17.15 2.92,17.15 Z M2.92,16.45 C4.14607215,16.45 5.14000001,15.4560721 5.14000001,14.23 C5.14000001,13.0039279 4.14607215,12.01 2.92,12.01 C1.69392785,12.01 0.699999994,13.0039279 0.699999994,14.23 C0.699999994,15.4560721 1.69392785,16.45 2.92,16.45 Z" id="Oval"></path>
            <path d="M15.77,17.15 C14.1573285,17.15 12.85,15.8426715 12.85,14.23 C12.85,12.6173285 14.1573285,11.31 15.77,11.31 C17.3826715,11.31 18.69,12.6173285 18.69,14.23 C18.69,15.8426715 17.3826715,17.15 15.77,17.15 Z M15.77,16.45 C16.9960721,16.45 17.99,15.4560721 17.99,14.23 C17.99,13.0039279 16.9960721,12.01 15.77,12.01 C14.5439279,12.01 13.55,13.0039279 13.55,14.23 C13.55,15.4560721 14.5439279,16.45 15.77,16.45 Z" id="Oval"></path>
        </g>
    </g>
</svg>