<?xml version="1.0" encoding="UTF-8"?>
<svg width="16px" height="16px" viewBox="0 0 16 16" version="1.1" xmlns="http://www.w3.org/2000/svg" xmlns:xlink="http://www.w3.org/1999/xlink">
    <!-- Generator: Sketch 49.3 (51167) - http://www.bohemiancoding.com/sketch -->
    <title>lupa</title>
    <desc>Created with Sketch.</desc>
    <defs></defs>
    <g id="Page-1" stroke="none" stroke-width="1" fill="none" fill-rule="evenodd">
        <g id="lupa" fill="#262424" fill-rule="nonzero">
            <path d="M6.91,13.82 C3.09371238,13.82 5.96046501e-09,10.7262876 5.96046501e-09,6.91 C5.96046501e-09,3.09371238 3.09371238,5.96046501e-09 6.91,5.96046501e-09 C10.7262876,5.96046501e-09 13.82,3.09371238 13.82,6.91 C13.82,10.7262876 10.7262876,13.82 6.91,13.82 Z M6.91,13.12 C10.3396883,13.12 13.12,10.3396883 13.12,6.91 C13.12,3.4803117 10.3396883,0.699999994 6.91,0.699999994 C3.4803117,0.699999994 0.699999994,3.4803117 0.699999994,6.91 C0.699999994,10.3396883 3.4803117,13.12 6.91,13.12 Z" id="Oval"></path>
            <path d="M15.9374874,15.4425126 C16.0741709,15.5791961 16.0741709,15.8008039 15.9374874,15.9374874 C15.8008039,16.0741709 15.5791961,16.0741709 15.4425126,15.9374874 L12.4325126,12.9274874 C12.2958291,12.7908039 12.2958291,12.5691961 12.4325126,12.4325126 C12.5691961,12.2958291 12.7908039,12.2958291 12.9274874,12.4325126 L15.9374874,15.4425126 Z" id="Shape"></path>
        </g>
    </g>
</svg>