<?xml version="1.0" encoding="UTF-8"?>
<svg width="139px" height="46px" viewBox="0 0 139 46" version="1.1" xmlns="http://www.w3.org/2000/svg" xmlns:xlink="http://www.w3.org/1999/xlink">
    <!-- Generator: Sketch 49.3 (51167) - http://www.bohemiancoding.com/sketch -->
    <title>lines</title>
    <desc>Created with Sketch.</desc>
    <defs></defs>
    <g id="Page-1" stroke="none" stroke-width="1" fill="none" fill-rule="evenodd">
        <g id="lines">
            <path d="M105.627704,7.49673381 C105.436208,7.52307994 105.259612,7.38919968 105.233266,7.19770389 C105.20692,7.00620809 105.3408,6.82961232 105.532296,6.80326619 C116.65482,5.27302134 127.663791,3.0078422 138.486938,0.0225989734 C138.673279,-0.0287977714 138.866004,0.0805965197 138.917401,0.266937961 C138.968798,0.453279403 138.859403,0.646004282 138.673062,0.697401027 C127.820121,3.69086192 116.780846,5.96227656 105.627704,7.49673381 Z" id="Shape" fill="#A6A8AA" fill-rule="nonzero"></path>
            <path d="M33.6038289,18.3234035 C33.4252181,18.3973152 33.2205082,18.3124397 33.1465965,18.1338289 C33.0726848,17.9552181 33.1575603,17.7505082 33.3361711,17.6765965 C36.223288,16.4818668 39.1941581,15.5005387 42.2258006,14.7402789 C51.681536,12.3966887 60.0314693,11.3074403 76.9870499,9.81073653 C89.7837197,8.68114833 92.7635632,8.39919608 99.0185109,7.65246777 C99.2104476,7.62955397 99.3846184,7.76657415 99.4075322,7.9585109 C99.430446,8.15044765 99.2934259,8.32461843 99.1014891,8.34753223 C92.8365213,9.09545676 89.853363,9.37772265 77.048601,10.5080252 C60.1278383,12.0016555 51.8041368,13.0874819 42.3951352,15.4194878 C39.3976339,16.1711873 36.4593137,17.1417637 33.6038289,18.3234035 Z" id="Shape" fill="#A6A8AA" fill-rule="nonzero"></path>
            <path d="M0.637399408,45.3497538 C0.527078437,45.5084801 0.308972522,45.5477204 0.150246211,45.4373994 C-0.00848009882,45.3270784 -0.0477203792,45.1089725 0.0626005919,44.9502462 C7.04803186,34.8998295 16.2602646,26.5985078 26.9811397,20.6934283 C27.1504546,20.6001694 27.3633127,20.6618248 27.4565717,20.8311397 C27.5498306,21.0004546 27.4881752,21.2133127 27.3188603,21.3065717 C16.6924066,27.1596437 7.56130826,35.3878536 0.637399408,45.3497538 Z" id="Shape" fill="#A6A8AA" fill-rule="nonzero"></path>
            <g id="Group" opacity="0.25" transform="translate(103.000000, 24.000000)" stroke="#A6A8AA" stroke-linecap="round" stroke-linejoin="round" stroke-width="0.699999988">
                <g id="Shape">
                    <path d="M0.42,0.93 C9.71,4.55 18.87,8.72 35.6,10.93"></path>
                </g>
            </g>
            <g id="Group" opacity="0.25" transform="translate(2.000000, 18.000000)" stroke="#A6A8AA" stroke-linecap="round" stroke-linejoin="round" stroke-width="0.699999988">
                <g id="Shape">
                    <path d="M0.59,27.91 C0.59,27.91 21.23,0.17 64.87,0.17 C78.63,0.17 87.46,2.06 95.14,4.63"></path>
                </g>
            </g>
            <path d="M30.33,21.49 C29.2199077,21.49 28.32,20.5900923 28.32,19.48 C28.32,18.3699077 29.2199077,17.47 30.33,17.47 C31.4400923,17.47 32.34,18.3699077 32.34,19.48 C32.34,20.5900923 31.4400923,21.49 30.33,21.49 Z M30.33,20.79 C31.053493,20.79 31.64,20.203493 31.64,19.48 C31.64,18.756507 31.053493,18.17 30.33,18.17 C29.606507,18.17 29.02,18.756507 29.02,19.48 C29.02,20.203493 29.606507,20.79 30.33,20.79 Z" id="Oval" fill="#A6A8AA" fill-rule="nonzero"></path>
            <g id="Group" opacity="0.25" transform="translate(98.000000, 22.000000)" stroke="#A6A8AA" stroke-linecap="round" stroke-linejoin="round" stroke-width="0.699999988">
                <g id="Oval">
                    <circle cx="2.28" cy="1.75" r="1.66"></circle>
                </g>
            </g>
            <path d="M102.36,9.46999999 C101.249908,9.46999999 100.35,8.57009234 100.35,7.46 C100.35,6.34990766 101.249908,5.45000001 102.36,5.45000001 C103.470092,5.45000001 104.37,6.34990766 104.37,7.46 C104.37,8.57009234 103.470092,9.46999999 102.36,9.46999999 Z M102.36,8.77000001 C103.083493,8.77000001 103.67,8.18349303 103.67,7.46 C103.67,6.73650697 103.083493,6.14999999 102.36,6.14999999 C101.636507,6.14999999 101.05,6.73650697 101.05,7.46 C101.05,8.18349303 101.636507,8.77000001 102.36,8.77000001 Z" id="Oval" fill="#A6A8AA" fill-rule="nonzero"></path>
        </g>
    </g>
</svg>