<svg 
 xmlns="http://www.w3.org/2000/svg"
 xmlns:xlink="http://www.w3.org/1999/xlink"
 width="1319.5px" height="509.5px">
<defs>
<filter filterUnits="userSpaceOnUse" id="Filter_0" x="0px" y="0px" width="1319px" height="509px"  >
    <feOffset in="SourceAlpha" dx="0" dy="30" />
    <feGaussianBlur result="blurOut" stdDeviation="9.487" />
    <feFlood flood-color="rgb(82, 76, 84)" result="floodOut" />
    <feComposite operator="atop" in="floodOut" in2="blurOut" />
    <feComponentTransfer><feFuncA type="linear" slope="0.15"/></feComponentTransfer>
    <feMerge>
    <feMergeNode/>
    <feMergeNode in="SourceGraphic"/>
  </feMerge>
</filter>

</defs>
<path fill-rule="evenodd"  fill="rgb(197, 240, 198)"
 d="M109.000,156.622 C109.000,286.987 109.000,394.000 109.000,394.000 C109.000,396.759 111.239,399.001 114.000,399.001 L1204.000,399.001 C1206.761,399.001 1209.000,396.759 1209.000,394.000 L1209.000,74.001 C1209.000,71.238 1206.761,69.000 1204.000,69.000 L114.000,69.000 C111.239,69.000 109.000,71.238 109.000,74.001 C109.000,74.001 109.000,79.329 109.000,101.346 C109.000,108.071 111.889,108.468 111.889,108.468 L136.426,129.001 L111.811,150.184 C111.811,150.184 109.000,151.438 109.000,156.622 Z"/>
<g filter="url(#Filter_0)">
<path fill-rule="evenodd"  fill="rgb(255, 255, 255)"
 d="M89.000,166.624 C89.000,296.989 89.000,384.001 89.000,384.001 C89.000,386.762 91.239,389.002 94.000,389.002 L1224.000,389.002 C1226.761,389.002 1229.000,386.762 1229.000,384.001 L1229.000,64.001 C1229.000,61.239 1226.761,58.998 1224.000,58.998 L94.000,58.998 C91.239,58.998 89.000,61.239 89.000,64.001 C89.000,64.001 89.000,89.329 89.000,111.348 C89.000,118.071 91.889,118.469 91.889,118.469 L116.426,139.001 L91.811,160.185 C91.811,160.185 89.000,161.437 89.000,166.624 Z"/>
</g>
<path fill-rule="evenodd"  stroke="rgb(26, 27, 26)" stroke-width="1px" stroke-linecap="butt" stroke-linejoin="miter" opacity="0.102" fill="none"
 d="M95.000,166.624 C95.000,296.989 95.000,378.001 95.000,378.001 C95.000,380.760 97.239,383.000 100.000,383.000 L1219.000,383.000 C1221.761,383.000 1224.000,380.760 1224.000,378.001 L1224.000,70.003 C1224.000,67.237 1221.761,65.000 1219.000,65.000 L100.000,65.000 C97.239,65.000 95.000,67.237 95.000,70.003 C95.000,70.003 95.000,85.331 95.000,107.346 C95.000,114.073 97.889,118.469 97.889,118.469 L122.426,139.001 L97.811,160.185 C97.811,160.185 95.000,161.437 95.000,166.624 Z"/>
</svg>