<?xml version="1.0" encoding="UTF-8"?>
<svg width="18px" height="14px" viewBox="0 0 18 14" version="1.1" xmlns="http://www.w3.org/2000/svg" xmlns:xlink="http://www.w3.org/1999/xlink">
    <!-- Generator: Sketch 49.3 (51167) - http://www.bohemiancoding.com/sketch -->
    <title>mail</title>
    <desc>Created with Sketch.</desc>
    <defs></defs>
    <g id="Page-1" stroke="none" stroke-width="1" fill="none" fill-rule="evenodd">
        <g id="mail" fill="#262424" fill-rule="nonzero">
            <path d="M0.699999994,0.699999994 L0.699999994,12.65 L17.13,12.65 L17.13,0.699999994 L0.699999994,0.699999994 Z M0.52,5.96046412e-09 L17.31,5.96046412e-09 C17.5971881,5.96046395e-09 17.83,0.232811933 17.83,0.52 L17.83,12.83 C17.83,13.1171881 17.5971881,13.35 17.31,13.35 L0.52,13.35 C0.232811933,13.35 5.96046418e-09,13.1171881 5.96046401e-09,12.83 L5.96046412e-09,0.52 C5.96046395e-09,0.232811933 0.232811933,5.96046418e-09 0.52,5.96046412e-09 Z" id="Rectangle-path"></path>
            <path d="M0.159025572,2.3033066 C-0.00296319215,2.19783434 -0.0487788677,1.98101434 0.0566933965,1.81902557 C0.162165661,1.65703681 0.378985664,1.61122113 0.540974428,1.7166934 L9.11097443,7.2966934 C9.27296319,7.40216566 9.31877887,7.61898566 9.2133066,7.78097443 C9.10783434,7.94296319 8.89101434,7.98877887 8.72902557,7.8833066 L0.159025572,2.3033066 Z" id="Shape"></path>
            <path d="M17.288869,1.71679542 C17.4508014,1.61123667 17.6676458,1.65693656 17.7732046,1.81886898 C17.8787633,1.98080139 17.8330634,2.19764583 17.671131,2.30320458 L9.11113102,7.88320458 C8.94919861,7.98876333 8.73235417,7.94306344 8.62679542,7.78113102 C8.52123667,7.61919861 8.56693656,7.40235417 8.72886898,7.29679542 L17.288869,1.71679542 Z" id="Shape"></path>
        </g>
    </g>
</svg>