<svg xmlns="http://www.w3.org/2000/svg" viewBox="0 0 2603.77 1500.16"><title>Ресурс 1</title><g id="Слой_2" data-name="Слой 2"><g id="Layer_1" data-name="Layer 1"><path d="M139,467.57l8.63-7h20.72l9.49-3.51,5.18-6.14,6-7,6.91,2.63s5.18,1.75,6,4.38,5.18,9.64,5.18,9.64l8.63,1.75h12.08l6.9-1.75,3.45-3.51h9.49s0,1.75,3.45,2.63a43.57,43.57,0,0,0,8.63.88h9.5l3.45-1.75L284,455.29l8.63,2.63,6.9,6.14s9.5,4.38,10.36,7,2.59,9.64,2.59,9.64l1.73,9.64,3.45,8.77.86,13.15-10.36,9.64L303,527.18l.86,8.77s0,4.38-2.59,7-7.77,7-7.77,7l-6,7s-2.59,5.26-2.59,7.89V575.4l.86,8.77s.86,4.38-3.45,4.38-9.49,2.63-10.36,0S265,578.9,265,578.9L254.62,578s-4.32.88-5.18,4.38-3.45,6.14-6,7.89-2.59,3.5-9.49,3.5-15.54-.87-16.4-3.5-4.31-10.52-6.9-11.4-7.77-4.38-9.49-1.75.86,9.64-6,7A22.31,22.31,0,0,1,183,572.77c-1.73-3.51-2.59-6.14-5.18-9.64s-6-6.14-6.91-10.52-2.59-7-3.45-10.52a69.51,69.51,0,0,0-4.31-12.27,54.16,54.16,0,0,1-4.32-10.52c-.86-3.51.86-5.26-4.31-13.15s-5.18-10.52-10.36-14-12.08-7.89-12.08-7.89S132.92,470.2,139,467.57Z" style="fill:#ccc;opacity:0.5"/><path d="M436.74,400.94s2.3-12.86,26.47-7h42.58l25.32-1.17s6.91-7,6.91-10.52a92.07,92.07,0,0,1,1.15-10.52l2.3-10.52,10.36-2.34,11.51-4.68a90.55,90.55,0,0,1,4.6-8.18c2.3-3.51,9.21-11.69,9.21-11.69l4.6-7,10.36-1.17H599l8.06-19.87,8.06-9.35,8.05-4.68,12.66-1.17,10.36-14,15-14,10.36-8.18,15-4.68,16.11,2.34L712.94,256l4.6,7h12.66L744,267.68l-4.6,9.35-6.91,5.84,2.3,9.35s10.36,5.84,11.51,9.35,1.15,11.69,1.15,11.69v29.22s-1.15,7,0,11.69a44.41,44.41,0,0,1,1.15,9.35l1.15,22.21-3.45,11.69-5.75,1.17-8.06,7-6.91,5.85s-3.45,2.34-12.66,3.5-1.15,4.68-9.21,1.17-12.66-11.69-12.66-11.69,2.3-1.17-3.45-5.85-9.21-4.67-10.36-9.35a100.46,100.46,0,0,0-3.45-10.52s0-7-2.3-10.52-3.45-1.17-3.45-8.18,1.15-10.52-2.3-12.86S660,339,660,339l-4.6-3.51-6.91,5.85A91.45,91.45,0,0,0,647.35,353c0,4.68,2.3,8.19-1.15,12.86s-8.06,5.84-9.21,9.35-3.45,4.68-5.75,9.35-10.36,9.35-11.51,12.86-2.3,12.86-2.3,12.86-1.15,11.69-1.15,15.2-2.3,15.19,1.15,15.19,9.21-1.17,10.36-4.68,1.15-10.52,1.15-15.2V408l11.51-2.34,8.05,8.18s3.45,7,3.45,10.52a50.42,50.42,0,0,0,2.3,12.86c1.15,3.51,3.45,14,6.91,14h10.36s4.6-1.17,5.76-8.18l1.15-7s13.81-10.52,18.41-10.52,19.56,2.34,19.56,2.34,8.06,0,11.51,1.17,10.36,5.84,10.36,5.84L744,443s9.21,1.17,15-3.51,4.6-8.18,5.75-12.86,4.6-10.52,4.6-10.52l9.21-4.67a45.62,45.62,0,0,1,8.06-5.85,112.81,112.81,0,0,1,15-7s9.2-3.51,12.66,0,6.91,2.34,8.06,5.85,1.15,8.18,1.15,11.69,1.16,4.68-1.15,8.18-9.21,4.68-15,4.68-5.75-3.51-11.51-2.34-11.51,7-11.51,7l-1.15,11.69,5.75,7,12.66,1.17,17.26-2.34s1.15-1.17,4.6-2.34,13.81-2.34,13.81-2.34l15-2.34h10.36l15,1.17s8.05-1.17,11.51,1.17S900.53,450,900.53,450s4.6,0,4.6,3.51,1.15,4.68,0,8.18-6.91,1.17-5.75,5.85,5.75,10.52,5.75,10.52l17.26,3.51h10.36l8.05,3.51,8.06-2.34,4.6-2.34,6.91,5.84,1.15,10.52,5.76,10.52,4.6-5.84s-1.15-5.84,3.45-8.18,10.36-9.35,10.36-9.35,3.45-4.68,2.3-9.35-3.45-12.86-3.45-12.86-5.75-2.34-5.75-7S982.24,443,982.24,443l15,4.67a49.41,49.41,0,0,0,3.45,10.52c2.3,4.68-3.45,7,5.75,11.69s13.81,10.52,18.41,14,6.9,10.52,9.21,15.2,10.36,18.7,10.36,18.7,8.06,10.52,9.21,14l4.6,14s5.75,9.35,9.21,8.18,11.51,1.17,11.51-4.68,0-11.69-1.15-16.36-5.76-15.2-5.76-18.7-1.15-10.52,0-14,6.91-14,6.91-14,6.9-1.17,6.9-7a125.09,125.09,0,0,0-1.15-14l8.05-17.53,9.21-3.51h19.56l5.76-5.84,3.45-11.69,9.21-9.35,10.36-5.84,18.41,3.5,1.15,16.37,1.15,10.52-6.91,16.36-15,5.85-9.21,3.51-5.75,12.86a53.79,53.79,0,0,0,1.15,9.35c1.15,5.85,0,17.53,0,17.53l-5.75,10.52s-8.06,7-8.06,10.52V556.4l2.3,17.53-9.21,9.35-11.51,14s-5.75,7-9.21,7-9.21,1.17-12.66,1.17S1072,609,1072,609l-3.45,5.84-3.45,17.53s5.75,8.18,10.36,8.18,15-7,15-7a33.32,33.32,0,0,1,3.45-7c2.3-3.51-5.75,1.17,2.3-3.51a119.32,119.32,0,0,1,18.41-8.18s8.06-5.84,8.06-9.35,0-9.35,1.15-12.86,6.9-11.69,6.9-11.69l9.21-9.35,15-2.34,9.21,2.34c4.61,1.17,16.11-3.51,16.11-3.51l-1.15-8.18-20.72-3.51-11.51-2.34s-11.51-9.35,3.45-28.05,8.06-16.36,8.06-16.36,1.15-8.18,1.15-11.69,1.15-16.36,1.15-16.36l4.6-12.86,8.05-3.51,11.51-16.36s0,5.84,4.61,9.35l4.6,3.51,15,9.35,10.36-4.68,6.91-7,10.36,5.85,6.9,4.68c3.45,2.34,6.91,5.85,10.36,4.68s6.91-1.17,6.91-7-4.6-7-4.6-10.52-3.45-3.51-3.45-8.18,2.31-10.52,2.31-10.52l6.9-7a27.68,27.68,0,0,1,8.06-1.17,43,43,0,0,0,9.21-1.17l10.36,3.51,6.9,4.67h10.36l16.11-3.51,10.36-8.18s4.61-4.68,5.75-9.35,3.45-15.19,3.45-15.19l11.51-8.18,19.57-9.35,17.26-9.35,19.57-7,13.81-4.67,9.21,3.51,5.75,2.34,13.81-1.17,18.41-9.35,6.9-7,2.3-14,2.3-14,11.51-7,9.2-7,12.66,3.51,8.06,9.35a63.71,63.71,0,0,0-1.15,9.35c0,3.51,2.3,9.35,2.3,9.35h12.66s12.66-7,16.11-9.35,11.51-2.33,15-1.17,0,3.5,6.9,7,12.66,14,12.66,14l2.3,8.18,1.15,19.87s-8.06,5.84-10.36,9.35-8.06,10.52-9.21,14-10.36,15.2-10.36,15.2l-6.9,15.19L1549.6,443s-3.45,8.18,0,10.52A18.37,18.37,0,0,0,1560,457c3.45,0,2.3-1.17,6.9-5.84s12.66-11.69,12.66-11.69,10.36-2.34,15-5.84,4.6-5.85,11.5-8.18,9.21-5.85,18.42-5.85,12.66-1.17,18.42-1.17h17.26c5.75,0,5.75,0,11.5,2.34s5.76,2.34,6.9,7,16.12,7,16.12,7l13.81,1.17,10.36-5.84-1.16-12.86s-3.45-8.18-3.45-12.86a44.78,44.78,0,0,0-1.15-9.35l12.66-7h19.56l15,8.18s6.9,5.85,11.5,7,9.21,9.35,9.21,9.35-4.6,8.18,0,11.69,8.05,7,12.66,9.35,26.47,8.18,26.47,8.18,3.45,12.86,6.91,10.52,5.75-4.68,5.75-11.69-1.15-11.69-1.15-16.36,2.3-10.52,2.3-10.52l8.05,2.34L1850,422l19.57-10.52s10.35-3.51,15-5.84,17.26-11.69,17.26-11.69,3.45-4.67,3.45-8.18-3.45-8.18-3.45-8.18l-9.2-3.5s-10.36-2.34-10.36-5.85V357.69l9.2-11.69a41.57,41.57,0,0,1,5.76-4.68c3.45-2.34,17.26-8.19,17.26-8.19l15-2.34L1942,332l8.05,5.84s10.36-1.17,10.36-4.68V321.45l2.3-10.52,10.36-5.85,16.11,1.17,9.2,7s9.21,2.34,15,2.34,23-3.5,24.17-7,9.21-14,11.51-18.7-1.15-8.18,2.3-11.69L2064,265.34l23-3.51s4.6-1.17,8.06,0,8.05,7,13.81,7,9.21-1.17,13.81-1.17,24.17-23.38,24.17-23.38l12.66-16.36,17.26-10.52,3.45-14,10.36-5.84s10.36,2.34,15,2.34h15l9.21-8.18-2.3-16.36s-11.51-2.34-15-2.34h-25.32s3.45-31.56,25.32-43.25l17.26-12.86,15-11.69s10.36-4.68,13.81-7,13.81-10.52,13.81-10.52l25.32-16.36,15-10.52,13.81-5.85s10.36,0,13.81-2.34,10.36-9.35,10.36-9.35,11.51-17.53,11.51-21S2369,5.85,2369,5.85l18.41-4.68L2403.52,0l12.66,5.85L2425.39,21l8.05,5.85,12.66,8.18,9.21,11.69-3.45,10.52L2441.5,67.8l-2.3,12.86s-2.3,8.18-9.21,4.68a80.41,80.41,0,0,1-12.65-8.18h-11.51s-1.15,8.18-1.15,11.69,1.15,10.52-3.46,10.52-17.26,1.17-20.71,1.17-12.66-1.17-12.66-1.17l-5.75,9.35,9.21,8.18,15,2.34s13.81,2.34,13.81,5.85,8.05,16.36,8.05,16.36a13.2,13.2,0,0,1-4.6,11.69c-5.75,4.67-15,9.35-15,9.35s-4.6,12.86,1.15,14,4.61,8.19,13.81,1.17,11.51-11.69,15-14A29.46,29.46,0,0,1,2434.6,159c6.91,0,18.41,1.17,21.87,1.17s16.11,2.34,16.11,2.34l8.06,7,4.6,8.18-15,17.53-2.3,12.86s-1.15,10.52-1.15,14,1.15,14,1.15,17.53v15.2l1.15,18.7s-1.15,8.18,0,11.69,2.3,16.36,2.3,16.36l6.91,5.85,11.51,16.36s0,7-3.45,7-16.11-1.17-16.11-1.17-4.61-3.51-5.76,0-4.6,15.2-4.6,15.2-2.3,5.84-4.6,10.52-3.45,9.35-4.61,12.86-2.3,4.68-3.45,9.35-5.75,17.54-5.75,17.54l-6.91,11.69a40.37,40.37,0,0,0,6.91,9.35c4.6,4.68,11.5,22.21,11.5,22.21s-2.3,11.69,0,16.37,5.76,8.18,12.66,10.52,12.66-4.68,12.66-4.68l4.61-8.18,13.81,1.17,6.91,9.35a57.7,57.7,0,0,1,9.2,7c3.45,3.51,9.21,4.67,9.21,4.67l9.21,2.33s11.51,4.68,6.9,8.18a16.66,16.66,0,0,1-9.2,3.51l-4.6,7,6.9,7c4.6,4.68,10.36,5.84,12.66,9.35s9.21,8.18,11.51,11.69,5.75,10.52,5.75,10.52l-4.6,10.52s-5.76-1.17-5.76,5.84,3.46,15.2,8.06,16.37,12.66,7,12.66,7V586.8c0,4.68-3.45,10.52-3.45,10.52s-8.05,1.17-2.3,8.18A44.34,44.34,0,0,0,2578.45,616L2590,632.39l10.36,26.88s1.15,16.37,1.15,19.87,2.3,15.2,2.3,18.7v10.52c0,4.68-10.36,10.52-10.36,10.52a12.49,12.49,0,0,1-9.21-8.18c-2.3-7-4.6-17.53-4.6-21s-1.15-7-3.45-12.86-8.06-8.18-12.66-11.69-26.47-11.69-39.12-21a157.86,157.86,0,0,0-35.68-19.87c-11.51-4.68-28.77-12.86-28.77-12.86s-32.23-24.55-36.83-51.43-8.05-12.86-8.05-12.86-5.75-4.68-4.6-11.69,3.45-9.35,4.6-14,1.15-3.51,1.15-10.52,2.3-8.18,0-16.37,0-17.53-2.3-21-4.61-2.34-4.61-8.18-8.06-22.21-8.06-25.72,2.3-11.69,0-17.53-2.3-10.52-2.3-17.53V391.59l-11.51-10.52-15-5.85a12.66,12.66,0,0,1-4.61-9.35c0-5.85,1.15-18.7,1.15-18.7v-7l-25.32,22.21s0,9.35,5.75,12.86,11.51,4.68,13.81,10.52,8.05,16.36,10.36,21,2.3,10.52,2.3,15.2v12.86s-1.15,8.18-9.21,7-3.45,2.34-12.66-1.17-9.21-5.85-13.81-5.85-15-4.67-16.11,1.17-4.61,5.85-4.61,15.2-1.15,14,1.15,19.87,3.45,14,4.6,18.7,2.3,23.38,2.3,23.38,5.76,8.18,10.36,9.35,15-1.17,15-1.17,5.75-4.68,8.06,2.34,8.06,9.35,2.3,11.69-13.81,5.84-13.81,5.84l-8.06,19.87a30.47,30.47,0,0,0-9.21,9.35c-3.45,5.84-17.26,16.36-18.41,11.69s-2.3-9.35-2.3-14,3.46-14,0-12.86-8.06-7-10.36,3.51l-2.3,10.52-11.51,8.18h-12.66s-2.3,12.86,0,16.36,2.3,9.35-3.45,11.69-17.26,15.19-17.26,15.19-12.65,1.17-18.41,3.51-16.11,8.18-16.11,8.18-8.06,7-8.06,10.52-11.51,29.22-11.51,29.22-8.06,10.52-8.06,19.87-1.15,21-1.15,25.72-2.3,10.52-3.45,14-2.3,39.74-2.3,39.74-2.3,9.35-2.3,14-6.91,23.38-6.91,23.38l-2.3,9.35S2163,821.75,2163,828.76s8.05,14,8.05,14a51.48,51.48,0,0,0,11.51,1.17c6.9,0,18.41,0,19.56,3.51s8.06,8.18,9.21,11.69-1.15,14,6.9,4.67,10.36-15.19,10.36-15.19l5.76-9.35s6.91-7,11.51-9.35,5.76-3.51,12.66-3.51h42.58l18.41,25.72,2.3,17.53s-1.15-1.17,4.6,10.52,6.91,12.86,11.51,19.87S2346,917.6,2346,917.6s0,3.5,6.9,5.84,16.11,14,16.11,14l3.45,14c1.15,4.68,3.45,28.06,3.45,31.56v16.37c0,11.68-2.3,16.36,0,24.55s1.15,14,3.45,22.21a69.91,69.91,0,0,1,2.3,19.88c0,4.67,0,16.36-1.15,19.87s-3.46,11.69-3.46,15.2-6.9,15.19-6.9,21-5.75,23.38-5.75,23.38l-13.81,30.39s-9.2,12.86-11.5,16.37-11.51,7-15,4.67-2.31-3.51-8.06-5.84-11.51-5.84-11.51-2.34-6.9,5.85-4.6,16.36,3.45,15.19-1.16,19.87-4.6,8.18-11.51,7-2.3,5.85-6.9-1.16-4.6-9.36-4.6-16.37-1.15-9.35,0-12.86,3.45-7,3.45-12.86,2.3-11.69-1.15-14-4.6-2.34-8.06-7,0,2.34-3.45-4.68-3.45-19.87,0-23.38,18.42-5.85,18.42-5.85,8.05,0,8.05-7V1114c0-5.84,1.15-1.17-1.15-14s-2.3-14-3.45-17.53l-1.15-3.51-13.81-8.18s-1.15-1.17,1.15-9.35,4.6-9.35,4.6-12.86a92,92,0,0,0-1.15-10.52s-3.45-2.34-6.9-1.17-18.41,15.19-23,16.36-11.5,5.85-13.81,9.36,1.15,5.84-3.45,10.52-2.31,10.52-12.66,8.18-40.28-14-40.28-14,10.36,0-1.15-7-1.15-5.84-11.51-7-26.47-1.16-29.93-1.16,0,2.34-10.36,1.16-16.11-1.17-20.71-3.51-6.91-7-12.66-12.86-9.21-11.69-13.81-14a77.33,77.33,0,0,1-12.65-8.18c-4.61-3.51-16.12-16.36-16.12-16.36s6.9,0-9.21-2.33-20.71-4.68-25.32-4.68-10.35-2.34-18.42-2.34h-12.66c-10.36,0-12.66-2.34-18.41,1.16a75.33,75.33,0,0,1-13.81,7c-3.45,1.17-4.61-2.34-9.21,3.5s-13.81,11.69-13.81,11.69V1031l9.21,5.84s3.46,4.68,3.46,8.18,1.15,8.18,0,12.86l-1.15,4.68s-10.36,14-10.36,18.7-1.15,9.35,0,14,10.36,11.69,10.36,11.69,6.91,4.68,2.3,9.35-4.6,7-10.36,9.36,4.6-4.68-5.76,2.34-5.75,8.18-18.41,8.18-12.66-3.51-20.71-2.34-1.15,5.85-10.36,7-2.3,2.34-15,3.5-8.06,3.51-12.66,1.17,4.61,0-4.6-2.34-10.36-4.68-13.81-2.34-11.51,3.5-11.51,3.5l-5.46,6.14-2.59,6.14-13.8,9.64-6,6.14s-6.91,3.51-9.5,4.39a66.71,66.71,0,0,1-12.09,2.63c-6,.88-13.81-.88-18.12.88s-12.95,1.75-20.72,1.75-6.91.88-14.67,0-16.4.88-19.85-.88-9.49-2.63-14.68-4.38a42,42,0,0,0-12.94-2.63c-3.46,0-12.95,1.75-13.81-.88s7.77-.88-.86-2.63a82.34,82.34,0,0,0-17.26-1.75c-2.59,0-8.63.88-11.22,2.63s-12.95,2.63-17.26,5.26-9.49,1.75-15.54,2.63-16.4,1.75-19.85-.88-11.22-7.89-11.22-7.89,0-6.14-1.73-8.77-.86-7.89-5.18-10.52-2.59-5.26-9.49-6.14-25-4.38-27.62-6.14-12.95-4.38-15.53-5.26-12.95-1.76-12.95-1.76-5.18,1.76-7.77,6.14-8.63,14-8.63,14-.86,7-.86,11.4-.87,7,0,12.27,1.73,11.4,1.73,11.4l-4.32,13.15h-13.81c-5.18,0-6,2.63-15.54,0s-7.77-3.51-13.81-3.51-12.95.88-15.54-1.75,1.73-1.75-5.18-6.14-16.4-11.4-16.4-11.4-1.73,1.75-14.67.87-19,0-22.45-2.63-6.9-7-7.76-4.38-4.32,5.26-11.22,7.89-5.18,3.51-12.95,2.63-8.64-.88-14.68-4.38-9.49-6.14-12.94-6.14,0-1.75-6.9,2.63-12.95,7.89-17.26,9.65-10.36,4.38-10.36,4.38l-12.94,7-17.26,4.38s-11.22,3.51-16.4,3.51-2.59-13.15-2.59-13.15l-7.77-5.26-7.77-3.51s-11.22,2.63-13.81,2.63-21.58-2.63-21.58-2.63a43.52,43.52,0,0,0-3.45-7.89c-1.73-2.63-7.77-13.15-7.77-13.15l-6.91-12.27-11.22-11.39-20.71-3.51-11.22-3.5-10.36-7.89-17.26-4.38-9.49-6.14-6.9-25.42s-5.18-8.77-5.18-11.4,1.73-13.15,0-15.78-1.73-10.52-3.45-13.15-6.91-11.4-9.49-14l-9.49-9.64-.86-8.77v-8.76s1.73-2.63-1.73-3.51a94.76,94.76,0,0,0-14.67-1.75H994.32l-7.77,6.14s-6.91,1.75-11.22,1.75H958.07l-3.45-7.89L952,990.95l-10.36-7s-9.49-3.5-12.08-4.38-10.36-5.26-10.36-5.26l3.45-9.65V951.5l-6-10.52s-2.59-6.14-5.18-7.89S900.24,927,900.24,927s-8.63-.88-11.22-.88-15.54.88-18.13,2.63-20.71,2.63-20.71,2.63-9.49-2.63-17.26-2.63-15.71-2-19-.88c-2.59.88-13.56.06-22.15.88-9.21.88-14.1-1.75-16.69-1.75H772.5s-6-8.77-12.08-9.65-14.67-4.38-14.67-4.38l-10.36-5.26s-7.77-4.39-6.9.88,2.59,9.64,5.18,12.27S740.56,934,740.56,934s3.45,4.39-2.59,5.26-2.59.87-12.95.87H714.67c-6.9,0-11.22-3.51-12.95,2.63s-12.08,6.14-12.08,6.14-7.77,2.63-4.32,7S694.82,969,694.82,969l1.73,10.52-2.59,14S692.23,998,681,998s-6-.88-13.81-4.38-9.49-10.52-15.54-14.9-7.77-8.77-11.22-11.4-9.5-11.4-9.5-11.4l-3.45-2.63-11.22-10.52s-14.67-.88-19-.88H583.47s-.86-2.63-5.18-2.63-8.63-.88-12.08-.88-9.49,2.63-9.49-.88V934l-2.59-14s1.73-15.78-.86-16.66-19-11.4-19-11.4l-6-9.64-6.91-7s-5.18-5.26-7.77-5.26H495.44l-17.26-.88-8.63-5.26H454l-10.36,10.52s.86,8.77-5.18,8.77-11.22,1.75-11.22-.88.86-1.75-.86-7-3.45-11.4-6-12.27-9.49-.88-9.49-.88l-10.36,4.39-5.18,8.76s-10.36,4.38-12.95,4.38H371.14l-7.77,6.14.86,13.15,5.18,10.52,6.9,10.52v14L372,955s-10.36,7.89-12.95,8.77-10.36,4.38-16.4,4.38-18.13,2.63-23.3,0-13.81-2.63-13.81-2.63l-13.81,5.26-11.22,8.77-5.18,11.4-1.73,13.15v11.4s-3.45,7.89-6,10.52-7.77,7.89-7.77,10.52-5.18,7.89-5.18,7.89a144.48,144.48,0,0,1-.86,15.78c-.86,6.14,1.73,11.4-2.59,12.27s-4.32,6.14-11.22,4.38-12.08,0-15.54-2.63-6-6.14-6-8.77,2.59-14,2.59-17.53-1.73-10.52-6.9-12.27-12.08-1.75-12.08-6.14.86-12.27.86-12.27l6-7-3.45-9.65s-6-7-9.49-8.76-16.4-10.52-16.4-10.52-1.73-11.4-1.73-14-3.45-13.15-6.91-14-12.08.88-12.95-3.5S152.77,934,152.77,934s-3.45-11.4-5.18-14l-6.91-10.52L131.2,905l-2.59-7V869.09l-4.31-5.26L120,853.31l-2.59-14.91-4.31-14.9,2.59-7L126,813l13.81,5.26a88.54,88.54,0,0,0,9.5.88h13.81l6.9-11.4,3.45-4.39a15.37,15.37,0,0,1,9.49,1.76,16.77,16.77,0,0,1,6,6.14L202,813l5.18-3.51-.86-12.27-8.63-7.89,2.59-6.14H210.6s4.32,3.51,7.77,7a16.87,16.87,0,0,1,4.32,7L236.5,799l10.36-5.26,12.95-11.4,8.63-11.4a52.06,52.06,0,0,0,1.73-12.27c0-6.14-.86-19.29-.86-19.29l-3.45-18.41-10.36-13.15s-2.59-7-5.18-7.89-12.95-5.26-12.95-5.26L233,684.11l6-9.64,7.77-4.38-.86-7.89-.86-15.78,6-7.89,5.18-16.66-1.73-9.64-6.91-10.52-5.18-7L246,586.8l5.18-4.39,7.77-3.51h6.91l4.31,12.71,11.65.44,4.75-5.26-.86-12.27L284,562.25l6-7,7.77-7.89s4.32-8.77,4.32-11.4,3.45-9.64,3.45-9.64l7.77-6.14,6-14.9s.86-7.89-1.73-9.64-5.18-1.75-5.18-5.26-1.73-13.15-1.73-13.15l-4.32-6.14,5.18-7.89,9.5-7.89,8.63-8.77,8.63-5.26v-11.4l8.63-2.63h25.9l9.49-10.52h10.36l7.77-1.75,6-4.38,8.63,4.38,7.77,7s8.63,7,11.22,1.75a125.25,125.25,0,0,0,5.18-13.15Z" style="fill:#ccc"/><path d="M338.34,1129.17h13.81l10.36,3.51,10.93,7,4,5.26,4,16.37v6.43l1.15,10.52,4.6,5.84s4.6,5.84,7.48,6.43,6.91.58,8.63,2.92,8.06,6.43,10.93,7,1.15,2.92,6.33.58,5.18-1.76,8.06-4.09,6.33-5.85,6.33-5.85l4-2.92s8.06-2.34,10.36-2.34,2.3,2.34,5.75,2.92,4,2.34,8.06,1.17,3.45-2.93,6.91-3.51a30.62,30.62,0,0,1,10.36,0c2.3.58,9.78,6.43,11.51,7.6s4.6,4.68,5.18,6.43a76.36,76.36,0,0,0,3.45,7v12.27l.58,12.86-1.72,4.68s-4.61,4.67-4,7-1.15,7-1.15,7,1.72,5.84,4,6.43a49.46,49.46,0,0,0,9.21,1.17c2.3,0,15,2.93,15,2.93l2.88,6.43,1.15,10.52-3.45,12.27s-1.15,4.1-.57,7,1.15,21.63,1.15,21.63.57,11.1,1.72,12.85,7.48,9.36,7.48,9.36l13.81,20.45,9.21,11.1,16.11,14L580,1391l8.63,5.26s13.81,15.2,3.45,24l-6.33,1.75s-7.48.59-9.21-.58a45.55,45.55,0,0,0-6.33-2.93s-10.93-.58-12.66-.58-6.9-.59-8.63-.59-8.06-1.17-8.63.59-3.45,3.51-4,5.26-5.76,3.51-5.76,3.51a50.54,50.54,0,0,0-5.75,2.92c-1.73,1.17-5.18,2.92-7.48,4.1s-5.18,1.17-10.36,1.75-21.29,1.17-28.2,1.17-17.26-.59-24.74,0-13.23,2.34-16.69,0-6.33-8.19-8.63-9.36-4.61,1.17-5.76-2.92-2.3-5.84-1.15-8.19a23.82,23.82,0,0,0,1.73-8.77v-11.1a22.33,22.33,0,0,0-.58-4.68l-5.18-9.36s.58-5.84-.57-8.76-2.3-5.84-4-6.43-4.61-3.51-7.48-5.26-7.48-2.34-8.05-4.09a49.08,49.08,0,0,1-2.3-7c-.58-2.92-.58-11.69-.58-11.69l-1.15-8.18-1.72-10.52s-7.48-7-8.06-8.77-6.33-6.43-7.48-8.76-11.51-9.94-11.51-9.94L351,1281.71l-10.93-6.42L277.35,1277s-6.33-7.6-.58-15.2l5.18-5.26,8.63-8.76,11.51-10.52,4-5.26.58-9.94-.58-10.52,3.45-3.5,6.33-3.51,4.6-4.09s3.45-9.35-5.18-10.52l-8.63-1.76-2.88-6.43.58-7,6.33-5.84,5.75-4.68,6.33-7,4.6-1.75-.57-12.86,2.88-7Z" style="fill:#ccc;opacity:0.5"/><path d="M402.21,1187l62.15-76s2.3-9.94,25.32-3.51l16.11,2.92s6.91,0,8.63.59,9.21,1.75,9.21,1.75l7.48,1.75,6.9,2.92,2.88,5.85,2.88,5.84c1.15,2.34,1.72,11.11,1.72,11.11l.58,8.76,4.6,10.52,5.18,8.77,1.72,9.35s1.15,6.43,2.3,8.18,0,4.67,3.45,5.84,9.78,7.6,9.78,7.6l10.93,2.34,10.36,5.26,11.51,2.92,7.48,4.09,6.33,2.92,6.91,5.85,10.93,10.52v9.35s-.58,4.67,0,7-1.15,9.35-1.73,11.1-4,11.69-4,11.69-3.45,1.17-1.15,4.09.58,8.18.58,8.18l5.75,5.84s5.18,2.34,5.18,4.1-.58,4.08,0,6.43,1.73,7.59,1.73,7.59l10.36,11.69,9.21,5.26,9.36,2.05,10.36,2.19,8.2-.88s6.76-.44,9.06-.44,16.54-1.76,16.54-1.76l12.08-4.09s5.76-2.92,8.63-2.92,13.81-1.18,13.81-1.18h10.93s3.45,1.76,3.45,4.1v6.43l-5.76,2.92h-9.21l-6.91.58-2.88,5.26s1.73,2.34,3.45,2.92,9.78,0,11.51.58,7.48.59,7.48.59h19s3.45-1.17,3.45,8.77-1.73,7.59-1.73,7.59-2.3,1.76-1.72,3.51,1.72,5.84,3.45,6.43a45.5,45.5,0,0,1,6.91,2.92c3.45,1.75,8.06,2.92,8.63,5.26a52.15,52.15,0,0,1,.58,8.18l-11.51,4.68a64.09,64.09,0,0,1-8.05.59c-4,0-20.14.59-22.44,0s-8.06.58-9.78-1.17-6.9-2.92-7.48-4.67-2.3-8.76-2.3-8.76l3.45-4.68s1.15-5.84.58-7.59-5.18-4.1-5.18-4.1l-9.21-.59-9.78-3.5-2.88-5.85c-1.15-2.34-2.88-7-2.88-7l-4.6-4.09s-5.76,2.33-5.76,5.26v8.77c0,2.34,2.3,6.43-.57,7.6s-2.3-1.17-4,3.51a10.06,10.06,0,0,1-6.91,6.43c-1.73.58-5.76.59-8.63,1.17s-1.15-4.1-2.88.59-2.3,4.67-1.73,8.18,1.73,7.6-3.45,8.18-6.33,1.75-10.36.58-4.6-.58-9.21-4.09,1.15-.59-4.6-3.51-6.33-5.25-8.06-2.92a36.44,36.44,0,0,0-3.45,7l.58,7.59s8.05,5.85,7.48,8.18-1.73,3.51-1.73,6.43-4,11.69-4.6,13.45-5.75,5.25-5.75,5.25-9.21,4.09-9.78,5.85,1.15,4.1-2.3,5.85,0,5.26-6.33,3.51-6.91-.59-10.36-4.09-5.18-7-8.05-8.78a17.21,17.21,0,0,1-5.76-5.25l-1.15-1.75,1.73-10.52s-1.73-5.85-1.73-7.6-2.88-5.26-2.88-5.26l-24.17-15.2s-23-19.87-27-32.73l-11.51-13.45-2.3-7-.57-13.45-.57-11.69v-13.45l1.15-12.27v-6.43l-2.88-7.6-4.6-3.51-12.08-1.17-5.75-1.75-5.18-2.92-.58-9.35,1.73-6.43,3.45-5.26.58-12.86-.58-11.69-3.45-10.52-10.93-11.1-9.78-1.17-8.63,1.17-5.75,2.34-6.91-1.17-4.6-2.92-5.75.58s-5.18,1.75-5.76,3.51-5.75,8.18-5.75,8.18-3.45,3.51-5.18,3.51-6.33,0-8.06-.59-7.48-2.92-7.48-2.92l-6.33-5.26Z" style="fill:#ccc;opacity:0.5"/><path d="M742.29,1412.63l2.3,5.85,8.06,4.09,9.21.58H767l5.76,1.75,6.91,2.34h10.93l5.75,2.33,1.15,5.26.57,5.85-1.15,6.43,4.6,5.26,5.18,4.68,2.3,5.85,4,4.09,4.6,9.36-.58,7a50.43,50.43,0,0,1-.57,7.6c-.58,2.92-1.73,7-1.73,7s-7.48,1.16-9.21,1.75-9.21.59-12.08,0-9.78-2.33-9.78-2.33a26.61,26.61,0,0,0-3.45-2.92c-1.73-1.17-7.48-2.92-7.48-2.92l-13.24-1.17H738.26l-8.63,2.33h-9.21S717,1491,717,1489.2V1481c0-2.34,2.3-9.35,2.3-9.35l5.75-9.35s5.18-4.67,5.18-7,1.73-8.19,1.73-9.94-2.3-8.18-2.3-8.18l-8.06-4.68-9.21-1.75L702,1433.68s-3.45,7-3.45,9.36-4,7-7.48,8.18-11.51,2.33-15.54,2.92-12.66,1.75-17.26.58a97.09,97.09,0,0,1-12.08-4.09c-2.88-1.17-9.78-3.51-11.51-3.51s-8.06.59-9.78-1.17-4.6-7.6-4.6-7.6l5.18-3.51,4-6.43,6.9-2.93,6.91-9.34s0-8.18.57-9.93,4.6-5.85,4.6-5.85l-7.48-8.18-.58-7.59,3.45-7,8.06,2.92,4.6,3.51,9.21,4.09,5.76-1.17,6.91-3.5A62.26,62.26,0,0,0,679,1377c0-2.34,2.3-9.35,2.3-9.35l8.63-.59s8.63,1.17,9.78-1.17,2.87-2.35,4-6.43,0-4.68.57-7.6,0-12.27,0-12.27l2.88-4.67s6.33-.59,8.06,1.16a22.06,22.06,0,0,1,4,7c.58,1.76-.57,6.43.58,8.18s7.47,5.27,10.35,7,9.21.59,9.21.59l2.88,5.85s-1.73,4.09-1.73,5.84.57,7.6.57,7.6l1.72,5.85,5.19,4.09-31.65-1.75s-4-2.92-6.33-2.92-9.21-.59-9.21-.59l-4.6,2.34v6.43l8.63,6.43,5.75,3.51s4.6.59,5.18,2.34,4,1.17,6.33,3.5,8.63,2.92,8.63,2.92h8.06Z" style="fill:#ccc;opacity:0.5"/><path d="M896.29,1339.63l-2.21-1.25-10.09-2-7.62-.89-8.06-1.17-5.49-1.06-6-7.7-8.06-4.68-12.08.59-5.75,4.09s-9.78,4.09-11.51,4.09-5.76-2.92-7.48-4.67-4-2.92-5.18-4.68-9.21-2.34-9.21-2.34l-9.78,1.17L782,1316.2H771.64l-2.3,7-4.6,7.59H758.4l-8.06,1.76-8.63,1.75-.57,4.68s27,0,29.92.59,9.78.58,12.08,1.17,2.88,5.84,2.88,5.84v7l-2.88,5.85,4,7,9.78,4.67,4.6,4.1v8.18l-8.63,4.67-11.51,1.18H759.55l-13.23-2.34s-14.38.59-18.41.59h-8.05l-5.18-4.1-9.78-2.34-8.63,1.16a72.75,72.75,0,0,0-1.15,7.6c0,1.75,5.18,5.26,5.18,5.26l10.93,4.68,9.78,7.59,12.66,3.5s6.33,1.18,8.63,2.34,5.75,5.85,5.75,5.85,8.06,3.51,9.78,4.09,8.05.59,10.36.59,6.91,1.75,9.78,2.34,6.91,0,9.78,0,9.21,2.33,9.21,2.33,5.75-2.92,7.48-4.08,5.75-4.1,7.48-4.68,7.48-5.84,7.48-5.84,9.21-1.75,12.08-3.51,3.45-4.09,5.75-6.43,12.66.59,15,1.17,6.91,4.1,12.08,7.59,3.45,4.68,3.45,4.68,17.84,0,19-1.76a18.27,18.27,0,0,0,2.88-5.84c.57-2.34,9.78-.58,12.08-1.17s10.93-1.17,10.93-1.17,8.63-1.75,11.51-2.92,4-3.5,5.75-5.26,5.76,0,8.63-1.17a21,21,0,0,0,5.75-4.09s11.51-.59,13.81-.59h15c1.73,0,7.48-5.27,7.48-5.27v-8.76l-2.3-12.27-5.75-4.08h-8.63c-1.73,0-9.21-1.76-9.21-1.76l-6.91-3.51-3.45-3.5-5.18-4.68-5.18-2.92-9.78-.59-9.78.59h-8.63l-8.63-4.68Z" style="fill:#ccc;opacity:0.5"/><path d="M348.13,1065.46l-.57-12.27V1041.5s1.72-4.67,3.45-4.67,5.18,1.75,5.18,1.75l4,4.67,3.45,4.09,6.91-2.92,2.88-5.85,8.06-5.26,4.6-.58,10.93,4.68,4.6,7s6.33,5.26,8.06,5.26,15-2.93,15-2.93l1.15-8.18,4.6-4.09,9.21-3.51,1.73-8.18.57-8.18-4.6-11.69-8.63-8.77-10.36-7.6-17.84-4.68-17.84-1.75-15.53-9.35-.58-7v-5.84l3.45-7,2.3-7.6s1.72-8.77,1.72-11.69.58-11.69.58-11.69L372.3,910,366,901.81l-1.73-10.52,3.45-7.6,5.75-4.09h9.21l7.48-1.75,4-3.51,6.33-7,6.33-3.5h10.36l5.18,5.26,4.6,8.18,4.6,7.6s7.48.59,9.21,0,5.75-5.85,5.75-5.85l6.33-8.77,8.63-4.67s6.91-1.17,9.21,0,4.6,4.09,8.06,4.09,5.75-1.17,9.21-1.17,8.63-1.17,11.51-.59,8.06,0,10.36,1.17,13.81,2.34,13.81,2.34l8.05,7L538,886s2.88,3.5,4.6,4.09,9.78,4.67,9.78,4.67l4,4.09,1.73,12.27.58,8.77v6.43s3.45,7,5.18,7,6.91,1.75,6.91,1.75,7.48-.59,9.21.58A28.14,28.14,0,0,0,585.2,938l5.18,1.17,8.06-.58h13.24l8.05,4.68,10.36,9.94,17.26,16.36s9.21,5.85,10.94,7.6,4.6,6.43,6.91,8.18a90.13,90.13,0,0,0,9.78,7c4,2.34,11.51,3.5,11.51,3.5l4.6-8.18s2.3-6.43,1.73-8.77-1.15-9.93-2.3-12.27-7.48-7.6-7.48-7.6l-2.3-9.35s5.75-3.51,7.48-3.51H694l5.76-1.17,2.88-5.85,5.18-1.17h12.08s9.21.58,11.51,1.17S741.71,938,741.71,938s0-5.84-1.15-8.18-6.33-7.6-6.33-7.6l-4-8.77-.57-5.84,4.6-1.17,8.06,2.92s7.48,2.34,10.36,3.51,8.63,2.33,11.51,4.09a76.39,76.39,0,0,1,9.21,7,86.31,86.31,0,0,0,8.06,5.85s10,2.05,10.93.59c1.15-1.75,8.63,0,12.08,0s9.78-.59,12.66,0,20.71.58,20.71.58,8.06,1.17,10.93,1.75,8.63-1.75,12.08-1.75,16.11-3.51,16.11-3.51,10.93-2.92,12.66-2.92,9.78.59,12.66,1.75,6.33,4.68,8.63,5.85,10.93,10.52,10.93,10.52l3.45,8.18.58,7.6-1.72,8.18-3.45,2.92-1.72,7,5.18,2.34,6.91,1.75,8.05,1.17,13.23,5.85,2.88,5.84c2.3,4.68-1.15,2.34,2.3,4.68a21.71,21.71,0,0,1,5.75,6.43h9.2l7.48-1.17,10.93-3.5,9.21-1.75h11.51c1.73,0,10.93-1.16,12.08.59s3.45,9.35,3.45,9.35-.57,4.68,0,6.43-1.15,6.42,1.73,8.18,6.33,10.52,6.33,10.52,8.06,6.43,9.21,8.18,5.18,10.52,5.18,10.52l1.15,10.52s-2.88,3.51-2.88,5.84-1.73,8.19,0,9.94,5.18,9.35,5.18,9.35l4,13.44,2.88,8.77s3.45,5.84,5.18,5.84h9.21c2.3,0,10.94-.58,11.51,1.17s5.18,5.26,5.18,5.26l10.36,5.84,9.78,5.85h16.69l8.06,4.67,6.9,16.37s6.91,6.43,8.06,8.18,1.72,7.6,4,9.35,4.61,7,9.21,8.18,15.53,2.93,15.53,2.93h10.93l10.36,3.5s5.18,3.51,5.75,5.26,2.3,7.59,2.3,7.59l-8.63,5.26s-5.18,2.93-6.9,2.93-9.21,1.17-9.21,1.17l-3.45,7-6.33,7.6s-5.18,1.17-6.33,2.92-2.88,1.76-3.45,7-1.15,8.77-1.15,8.77l-4.6,9.93-3.46,10.52-13.81,2.34-20.72-.59a43,43,0,0,0-4.6-4.09c-1.73-1.17-8.06-5.26-8.06-5.26s-6.33-.59-8.05,0-9.21,4.68-9.21,4.68-5.75,5.26-6.91,7-2.88,3.51-3.45,5.26-4.6,18.11-4.6,18.11l-.58,11.11-6.9,9.93-10.36,1.17s-5.18-3.51-8.06-5.26-10.93-4.68-10.93-4.68h-25.32l-1.73,8.76,2.3,8.77,6.33,5.26v12.27s0,9.94-1.73,12.27-6.9,7.59-8.06,9.35-10.36,13.44-12.66,14.61-9.78,1.75-10.36,3.51-8.63,10.52-8.63,10.52V1370s-1.73-6.43-4-7.59-8.63-2.92-11.51-2.92-6.33,1.17-9.78-.59a83.77,83.77,0,0,1-12.08-7.6,33.74,33.74,0,0,0-11.51-5.26c-2.88-.58-2.88-1.17-8.63-1.17s-8.06.58-13.23,0-9.78,1.17-12.08-2.34l-2.3-3.51s-19-3.5-21.29-3.5-10.36-.59-11.51-2.92-5.75-7-7.48-8.18-5.18-4.67-7.48-4.67-7.48.58-7.48.58l-7.48,4.1L820,1328.47s-.58-1.76-3.45-3.51a56.66,56.66,0,0,0-7.48-3.51s-5.18-1.17-7.48-1.75a32.26,32.26,0,0,0-7.48-.59c-2.3,0-7.48,0-9.2-.59s-7.48-2.33-7.48-2.33l-13.24,1.75H738.25a55.68,55.68,0,0,0-9.78,1.17c-2.3.59-13.81,4.67-13.81,4.67l-13.81,2.34H684.74c-1.72,0-7.48,1.75-10.93,0s-10.36,1.17-15-3.5-12.08-9.36-12.08-9.36-5.18-7-5.18-8.77-1.15-9.34-1.15-9.34l-2.88-5.27-6.91-5.26-.58-11.68s2.3-4.67,2.88-6.43,2.88-12.86,3.45-15.78a51.27,51.27,0,0,0,.57-9.35c0-2.92-2.88-12.86-2.88-12.86l-3.45-4.68-11.51-8.76-12.08-5.85-13.24-2.92-17.26-6.43s-5.18-2.34-7.48-4.68-7.48-9.94-7.48-9.94-2.88-8.18-2.88-9.93-.57-8.18-2.3-11.11-6.33-9.35-6.33-9.35l-2.3-7v-10.52l-3.45-11.69-6.33-8.77-8.05-4.68-12.66-2.92H504.06S496,1107,494.28,1107s-13.81-.59-13.81-.59l-10.36-1.17-7.48,7s-8.06,7.6-9.78,9.93-6.9,11.69-6.9,11.69l-9.78,9.35-15,13.45-6.33,13.44-8.06,10.52s-5.76,7-8.63,7-9.2,1.75-9.78-.59-2.88-7.6-3.45-9.35-1.73-11.69-1.73-11.69V1154.3l-8.63-14.61-9.78-8.77-11.51-3.51-8.06-2.34-3.45-5.84,6.33-2.92,5.18-1.75,7.48-5.26.57-5.26-2.3-4.68-4-.58-10.36-4.68-4.6-4.09-.58-9.35v-5.85l5.18-7Z" style="fill:#ccc;opacity:0.5"/><path d="M5.18,494.74l9.5-.88,7.77-.88,6.9-2.63,12.95-.88H62.15l11.22.88,9.49,5.26,13.81,2.63,6-6.14,6-8.77,6-3.51,8.63-4.38,8.63-1.75,3.45,8.77,6.91,7.89s5.18,9.64,7.77,12.27,3.45,5.26,5.18,7.89,4.32,10.52,5.18,14.9-1.73,7,1.73,10.52,6,13.15,9.49,16.66,2.59,5.26,6.91,11.4,2.59,11.4,8.63,14,10.36,4.38,10.36,4.38l6.91-6.14s9.49.88,12.08,3.51,0,1.75,4.32,6.14,5.18,7,10.36,7h5.18l12.95,11.4S260.67,621,253.76,635s-2.59,4.38-2.59,4.38l-3.45,6.14a12.26,12.26,0,0,0-1.73,6.14c0,3.51,0,10.52,1.73,13.15a48,48,0,0,1,3.45,7s-6,3.51-8.63,3.51-7.77,5.26-7.77,5.26,1.73,9.64,6.91,11.4,12.08,9.64,12.08,9.64,7.77,12.27,9.5,14.9,6,7.89,6,10.52,2.59,25.42,2.59,25.42l-1.73,14s-4.31,10.52-6.9,13.15-9.5,7.89-9.5,7.89-8.63,6.14-12.08,7-6,3.51-12.95,1.75-8.63-7-12.08-8.77-6-4.38-9.49-4.38H195.93s-2.59,4.38-8.63,2.63-6-2.63-14.67-4.38-12.95,0-20.72-2.63-10.36-1.75-17.26-6.14-5.18-7-12.08-8.77-10.36-1.75-12.95-4.38-12.09-7-12.09-7-6,.88-6,4.38,1.73,8.77,1.73,8.77-6,5.26-5.18,8.77.86,6.14,4.32,9.64,11.22,7.89,15.54,8.77,6,.88,6,4.38,3.45.88,0,3.51,0,4.38-11.22,2.63-10.36,1.76-19.85-2.63-14.67-7-19.85-10.52-6-2.63-11.22-7-11.22-12.27-8.63-14.9-3.45-.88,2.59-2.63,12.95-2.63,12.95-5.26,2.59-.88.86-6.14-6-1.76-6-7V742l12.08-4.38s-1.73,3.51,4.31,3.51a75.46,75.46,0,0,0,11.22-.88s.86-2.63-2.59-6.14a25.19,25.19,0,0,0-8.63-5.26,6.4,6.4,0,0,0,0-6.14,20.56,20.56,0,0,1-1.73-7.89L76,703.4s-3.45-12.27-6-12.27H57.83c-8.63,0-12.95,3.51-15.54,0s1.73-7-3.45-7-6.91-1.75-12.08.88a62,62,0,0,0-8.63,5.26s-3.45,7.89-6.91,3.51-6-2.63-6.9-7.89a48,48,0,0,1-.86-9.64v-8.77l6.9-.88,11.22-.88,10.36,1.75,4.32,4.38,5.18,1.75,13.81-3.51L57,660.44l5.18-7.89,6-11.4,6.9-7,6-8.77s.86-7.89,0-12.27-1.73-13.15-4.32-14-17.26-13.15-17.26-13.15L43.16,575.4,32.8,571l-4.32-9.64.86-9.64L25,543,12.08,529.81l-1.73-9.64-8.63-3.51L.86,506.14,0,496.5Z" style="fill:#ccc;opacity:0.5"/><path d="M2296.78,801.59l7.77,1.75,3.45,4.39,1.73,7v8.77l2.59,10.52,7.77,7.89,13.81,9.64a71.81,71.81,0,0,1,7.77,9.65c3.45,5.26,5.18,7.89,7.77,11.4s8.63,0,8.63,0l7.77,8.76,21.58,24.55,12.94,14.91,12.08,17.53,7.77,13.15,12.08,22.8,7.77,9.64,6,6.14s7.77,4.38,10.36,4.38,10.36-1.75,10.36-1.75,1.73-5.26.86-7.89-.86-9.64-.86-9.64l7.77-.87,6.9,3.51s2.59,3.51,6,2.63,6.91-7.89,6.91-7.89l-3.45-8.77s-13.81-2.63-16.4-2.63-15.54-.88-18.12-2.63-15.54-7-17.26-9.64-14.67-21-14.67-21l-2.59-14v-9.64h6.9l12.08-1.75,12.08-1.75v-5.26c0-2.63-9.49-7-9.49-7S2357.2,848,2333,810.35l-6.91-8.77-7.77-7.89-6.91-7-13.81-6.14S2283,791.06,2296.78,801.59Z" style="fill:#ccc"/><path d="M175.22,365.87h8.63l9.49.87,6,8.77,3.45,4.38,7.77,3.51,1.73,6.14,1.73,6.14,4.31,7.89,5.18,4.38,5.18,4.38,4.32,4.38,2.59,8.77a21.5,21.5,0,0,1-7.77,3.51c-4.32.88-2.59,3.51-11.22-.88s-9.49-2.63-12.08-5.26-5.18-4.38-6.91-7.89-4.32-7.89-4.32-7.89a12.1,12.1,0,0,0,0-6.14c-.86-3.51-1.72-7-4.31-7.89a27.33,27.33,0,0,0-6.91-.88l-3.45-7.89L174.35,379l-2.59-5.26v-7Z" style="fill:#ccc"/><path d="M1079.77,330.8h-8.63l-6,3.51-9.49,4.38-7.77,5.26c-2.59,1.75-10.36,4.38-10.36,4.38l-7.77,4.38-13.81,7-15.54,3.51-6,8.77-6,12.27s-4.32.88-5.18,4.38l-2.59,10.52-.86,9.64v7.89l-1.73,7.89a76.15,76.15,0,0,0-9.49,1.75c-2.59.88-8.63.88-11.22-1.75s-8.63-7.89-8.63-10.52-6-5.26-6-8.77v-7l-2.59-14s-1.73-6.14-1.73-8.77.86-8.77.86-8.77l6-1.75,11.22-1.75L959.8,358l6-8.77,6-.88h9.5l9.49-1.75,3.45-4.38,12.95-11.4,9.5-6.14,2.59-8.77,7.77-6.14,3.45-10.52,6-3.51h43.16l9.49-1.75s11.22-.88,13.81-.88,17.26-.88,17.26-.88l16.4-.88h12.95l8.63-1.75,12.95-2.63,11.22.88,6.9,7-.86,7-6,8.77s-15.54,5.26-19,5.26-16.4.88-16.4.88l-19.85,1.75-15.54,1.75-18.12,3.51-8.63,2.63Z" style="fill:#ccc"/><path d="M1438.84,208.07l.86,7.89,1.72,7.89L1444,230l9.49,11.4,2.59,10.52-.86,7-6,11.4s-6,4.38-9.49,3.51-12.95-2.63-15.54-5.26-12.08-14-12.08-14l-4.31-2.63s-6.9,1.75-8.63-.88-6.9-6.14-6.9-6.14,1.72-5.26,4.31-7a26.86,26.86,0,0,0,5.18-5.26l1.73-9.64,6.9-.88,4.32-6.14,8.63-7.89,5.18-5.26,4.32-3.51Z" style="fill:#ccc"/><path d="M1472.49,258l4.31-3.51,7.77.88,4.31,4.38,12.95,7.89,5.18,7.89v8.77s-5.18,4.38-9.49,4.38-18.13.88-18.13.88l-6.91,1.75-7.77,6.14H1457l.86-8.77,6.9-7,3.45-8.77,2.59-10.52Z" style="fill:#ccc"/><path d="M1848.82,265l-5.18,1.75a9.74,9.74,0,0,0-2.59,6.14c0,3.51-5.18,7.89-5.18,7.89s-2.59,5.26-2.59,8.77-2.59,12.27-2.59,12.27-4.31,3.51-8.63,3.51-16.4-1.75-16.4-4.39a16.47,16.47,0,0,0-3.45-9.64c-2.59-3.51-3.45-6.14-5.18-8.77s-6-8.77-6-8.77l2.59-11.4,6-3.51,11.22-1.75,6-3.51,4.32-6.14,5.18-5.26,12.08-1.75,11.22-.88a62.22,62.22,0,0,0,6,3.51c3.45,1.75,7.77,7,7.77,7l.86,7.89-6,3.51Z" style="fill:#ccc"/><path d="M2207.88,54.64l-1.73,5.26-.86,9.64s-5.18,7-7.77,7h-16.4s-6-8.77-6-11.4V52.89l3.45-13.15,9.49-7L2199.25,31l10.36.88,8.63,9.64v7Z" style="fill:#ccc"/><path d="M55.24,592.93l-2.73,1.94-5.9,4.19v9.64l-5.18,7.89-4.31,7-4.32,2.63-10.36,7L12.08,639.4l-3.45,7.89-6,7.89v7.89s-3.45,4.38.86,4.38a23.52,23.52,0,0,0,6.9-.88l11.22-.88,10.36,1.75,4.32,4.38s7.77,1.75,10.36,2.63,8.63-4.38,8.63-4.38L57,660.44l5.18-7.89,9.49-9.64,6.91-10.52,2.59-7V613.1l-4.32-14-5.18-6.14-9.49-3.51Z" style="fill:#ccc;opacity:0.5"/><path d="M168.6,1033.91l4.6.58,2.88,2.92a22.11,22.11,0,0,1,2.88,4.67,20.85,20.85,0,0,0,2.3,5.26c1.15,1.75,6.33,8.77,6.33,8.77s2.3,5.26,4.6,6.43,5.18,2.34,6.9,1.17,1.73-3.51,1.73-5.26.58-8.19.58-8.19l1.73-4.67,2.88-7,4-2.92,8.05.58,1.73,4.09,2.88,6.43v16.36c0,2.34-4,4.09-.58,6.43s2.88,2.34,5.75,3.51,4,2.34,7.48,2.34,6.33-.59,8.06,0,4,1.17,5.75,1.75,4.6,2.92,5.18,4.68-1.15,4.68-1.15,7-.58,7.6-1.73,9.35-3.45,1.17-3.45,2.92-2.3,4.09-1.73,5.84,1.73,7.6,1.73,7.6l-.58,6.43-4.6,2.92L231.89,1135H219.24s-4.6,2.93-4.6,5.85-6.33,5.26-8.63,6.43-10.93,1.17-10.93,1.17l-5.18,8.77s-.58,2.34-6.33,1.75-12.08-3.51-12.08-5.26.58-11.1.58-11.1,4,1.75,7.48,0,10.93-4.67,12.08-7,6.91-6.43,6.91-8.19-1.15-4.09-1.73-5.84-6.9-5.26-6.9-5.26l-11.51-.58-13.23.58-7.48-3.51-3.45-4.09,4-9.35-4-5.26-2.88-8.18,1.73-4.67,4-2.93v-7s-.58-5.26,0-7,6.33-5.26,6.33-5.26l4.6-3.51Z" style="fill:#ccc;opacity:0.5"/><path d="M126,1024.55l.58-1.75,1.73-5.26,2.3-5.84,4.6-2.34,6.33.58,5.76,5.26s4.6,3.51,6.33,4.68,4,2.34,5.75,3.51a43.41,43.41,0,0,1,4.6,4.09s1.73,4.09,2.3,5.85.58,9.94.58,9.94v8.19l-.58,5.26-3.45,3.5s-4.6,1.75-4.6,3.51-1.73,7.6-1.73,7.6l2.3,6.43-4.6,2.92-2.3,2.92-.57,7.6,2.88,4.67s2.3,1.75,2.3,3.51,0,7.6-2.3,7.6-1.15,1.76-6.33.59-10.93-5.26-11.51-7.6-4-7-4-7a4.72,4.72,0,0,1-4-4.67v-23.38l-2.88-9.35v-9.35L122,1041.5l-2.88-5.84,2.3-7Z" style="fill:#ccc;opacity:0.5"/><path d="M1886.8,222.09a18.24,18.24,0,0,0,5.18-.88c2.59-.88,6.9-1.75,6.9-1.75l11.22,2.63,6,5.26,1.72,12.27s2.59,5.26-2.59,5.26-15.54.88-18.13.88h-6.9s-1.73,4.38-5.18,3.51-6.91-1.75-7.77-4.38-4.31-10.52-2.59-13.15,6.9-6.14,6.9-6.14Z" style="fill:#ccc"/><g style="opacity:0.5"><path d="M449,584a10.9,10.9,0,0,1,0,21.81A10.9,10.9,0,0,1,449,584Z" style="fill:#ccc;fill-rule:evenodd"/></g></g></g></svg>