<?xml version="1.0" encoding="UTF-8"?>
<svg width="33px" height="17px" viewBox="0 0 33 17" version="1.1" xmlns="http://www.w3.org/2000/svg" xmlns:xlink="http://www.w3.org/1999/xlink">
    <!-- Generator: Sketch 49.3 (51167) - http://www.bohemiancoding.com/sketch -->
    <title>rub</title>
    <desc>Created with Sketch.</desc>
    <defs></defs>
    <g id="Page-1" stroke="none" stroke-width="1" fill="none" fill-rule="evenodd">
        <g id="rub" fill-rule="nonzero">
            <path d="M20.3002776,1.75999999 C20.1345921,1.85956454 19.9195646,1.80596298 19.82,1.64027756 C19.7204355,1.47459214 19.774037,1.25956455 19.9397224,1.16000001 C23.3480525,-0.888151458 27.738192,-0.166758365 30.3118891,2.8643671 C32.8855862,5.89549257 32.8855862,10.3445074 30.3118891,13.3756329 C27.738192,16.4067584 23.3480525,17.1281515 19.9397224,15.08 C19.774037,14.9804354 19.7204355,14.7654079 19.82,14.5997224 C19.9195646,14.434037 20.1345921,14.3804355 20.3002776,14.48 C23.4147861,16.3515867 27.4264653,15.6923827 29.7782919,12.9225611 C32.1301186,10.1527396 32.1301186,6.08726045 29.7782919,3.3174389 C27.4264653,0.547617345 23.4147861,-0.11158669 20.3002776,1.75999999 Z" id="Shape" fill="#D0D1D3"></path>
            <path d="M23.864173,8.70904579 C23.6714004,8.69478194 23.5266904,8.52694569 23.5409542,8.33417302 C23.5552181,8.14140036 23.7230543,7.99669037 23.915827,8.01095421 C24.4545385,8.05081514 24.9869211,7.87432056 25.3951324,7.52053743 C25.8033437,7.1667543 26.0537151,6.66486206 26.09,6.15 C26.09,5.19088085 25.1506009,4.49999999 23.83,4.49999999 L22.83,4.49999999 C22.6367003,4.49999999 22.48,4.34329966 22.48,4.15 C22.48,3.95670034 22.6367003,3.80000001 22.83,3.80000001 L23.83,3.80000001 C25.4988236,3.80000001 26.79,4.74959535 26.789173,6.17404579 C26.7392639,6.89878394 26.4025576,7.57374247 25.8535838,8.04951978 C25.30461,8.52529709 24.5886471,8.76265187 23.864173,8.70904579 Z" id="Shape" fill="#D0D1D3"></path>
            <path d="M23.67,10.6 C23.4767003,10.6 23.32,10.4432997 23.32,10.25 C23.32,10.0567003 23.4767003,9.90000001 23.67,9.90000001 L25.54,9.90000001 C25.7332997,9.90000001 25.89,10.0567003 25.89,10.25 C25.89,10.4432997 25.7332997,10.6 25.54,10.6 L23.67,10.6 Z" id="Shape" fill="#D0D1D3"></path>
            <path d="M12.3002776,1.75999999 C12.1345921,1.85956454 11.9195646,1.80596298 11.82,1.64027756 C11.7204355,1.47459214 11.774037,1.25956455 11.9397224,1.16000001 C15.3480525,-0.888151458 19.738192,-0.166758365 22.3118891,2.8643671 C24.8855862,5.89549257 24.8855862,10.3445074 22.3118891,13.3756329 C19.738192,16.4067584 15.3480525,17.1281515 11.9397224,15.08 C11.774037,14.9804354 11.7204355,14.7654079 11.82,14.5997224 C11.9195646,14.434037 12.1345921,14.3804355 12.3002776,14.48 C15.4147861,16.3515867 19.4264653,15.6923827 21.7782919,12.9225611 C24.1301186,10.1527396 24.1301186,6.08726045 21.7782919,3.3174389 C19.4264653,0.547617345 15.4147861,-0.11158669 12.3002776,1.75999999 Z" id="Shape" fill="#A6A8AA"></path>
            <path d="M15.864173,8.70904579 C15.6714004,8.69478194 15.5266904,8.52694569 15.5409542,8.33417302 C15.5552181,8.14140036 15.7230543,7.99669037 15.915827,8.01095421 C16.4545385,8.05081514 16.9869211,7.87432056 17.3951324,7.52053743 C17.8033437,7.1667543 18.0537151,6.66486206 18.09,6.15 C18.09,5.19088085 17.1506009,4.49999999 15.83,4.49999999 L14.83,4.49999999 C14.6367003,4.49999999 14.48,4.34329966 14.48,4.15 C14.48,3.95670034 14.6367003,3.80000001 14.83,3.80000001 L15.83,3.80000001 C17.4988236,3.80000001 18.79,4.74959535 18.789173,6.17404579 C18.7392639,6.89878394 18.4025576,7.57374247 17.8535838,8.04951978 C17.30461,8.52529709 16.5886471,8.76265187 15.864173,8.70904579 Z" id="Shape" fill="#A6A8AA"></path>
            <path d="M15.67,10.6 C15.4767003,10.6 15.32,10.4432997 15.32,10.25 C15.32,10.0567003 15.4767003,9.90000001 15.67,9.90000001 L17.54,9.90000001 C17.7332997,9.90000001 17.89,10.0567003 17.89,10.25 C17.89,10.4432997 17.7332997,10.6 17.54,10.6 L15.67,10.6 Z" id="Shape" fill="#A6A8AA"></path>
            <path d="M8.12,16.24 C3.63544783,16.24 5.96046412e-09,12.6045522 5.96046412e-09,8.12 C5.96046412e-09,3.63544783 3.63544783,5.96046412e-09 8.12,5.96046412e-09 C12.6045522,5.96046412e-09 16.24,3.63544783 16.24,8.12 C16.24,12.6045522 12.6045522,16.24 8.12,16.24 Z M8.12,15.54 C12.2179528,15.54 15.54,12.2179528 15.54,8.12 C15.54,4.02204715 12.2179528,0.699999994 8.12,0.699999994 C4.02204715,0.699999994 0.699999994,4.02204715 0.699999994,8.12 C0.699999994,12.2179528 4.02204715,15.54 8.12,15.54 Z" id="Oval" fill="#262424"></path>
            <path d="M6.69999999,11.61 C6.69999999,11.8032997 6.54329966,11.96 6.35,11.96 C6.15670034,11.96 6.00000001,11.8032997 6.00000001,11.61 L6.00000001,4.49 C6.00000001,4.10892353 6.30892353,3.80000001 6.69,3.80000001 L7.83,3.80000001 C9.4988236,3.80000001 10.79,4.74959535 10.7885308,6.18203556 C10.6492584,7.69724957 9.32158961,8.82144418 7.80414556,8.70904376 C7.61137402,8.69476474 7.46667723,8.5269171 7.48095624,8.33414556 C7.49523526,8.14137402 7.6630829,7.99667723 7.85585444,8.01095624 C8.99257776,8.09515584 9.98713966,7.25301722 10.09,6.15 C10.09,5.19088085 9.15060086,4.49999999 7.83,4.49999999 L6.69999999,4.49999999 L6.69999999,11.61 Z" id="Shape" fill="#262424"></path>
            <path d="M5.8,10.6 C5.60670034,10.6 5.45000001,10.4432997 5.45000001,10.25 C5.45000001,10.0567003 5.60670034,9.90000001 5.8,9.90000001 L9.54,9.90000001 C9.73329966,9.90000001 9.88999999,10.0567003 9.88999999,10.25 C9.88999999,10.4432997 9.73329966,10.6 9.54,10.6 L5.8,10.6 Z" id="Shape" fill="#262424"></path>
        </g>
    </g>
</svg>